G04 (Genere par PCBnew (20080825)) le 24/9/2009-02:43:00*
G01*
G70*
G90*
%MOIN*%
G04 Gerber Fmt 3.4, Leading zero omitted, Abs format*
%FSLAX34Y34*%
G04 APERTURE LIST*
%ADD10C,0.015000*%
%ADD11C,0.055000*%
%ADD12R,0.060000X0.060000*%
%ADD13C,0.060000*%
%ADD14R,0.140000X0.080000*%
%ADD15R,0.080000X0.140000*%
%ADD16C,0.025000*%
%ADD17C,0.010000*%
%ADD18C,0.025000*%
%ADD19C,0.080000*%
%ADD20R,0.035000X0.055000*%
%ADD21R,0.055000X0.035000*%
%ADD22R,0.080000X0.160000*%
%ADD23R,0.020000X0.045000*%
%ADD24R,0.036000X0.036000*%
%ADD25R,0.076000X0.170000*%
%ADD26R,0.065000X0.120000*%
%ADD27R,0.240000X0.240000*%
%ADD28C,0.020000*%
%ADD29C,0.000000*%
%ADD30C,0.015000*%
%ADD31C,0.005000*%
%ADD32C,0.001000*%
%ADD33C,0.006000*%
%ADD34C,0.012000*%
%ADD35C,0.008000*%
%ADD36C,0.002600*%
%ADD37C,0.007000*%
%ADD38C,0.002500*%
%ADD39C,0.003500*%
%ADD40C,0.057000*%
%ADD41R,0.062000X0.062000*%
%ADD42C,0.062000*%
%ADD43R,0.142000X0.082000*%
%ADD44R,0.082000X0.142000*%
%ADD45R,0.037000X0.057000*%
%ADD46R,0.057000X0.037000*%
%ADD47R,0.082000X0.162000*%
%ADD48R,0.022000X0.047000*%
%ADD49R,0.038000X0.038000*%
%ADD50R,0.078000X0.172000*%
%ADD51R,0.067000X0.122000*%
%ADD52R,0.242000X0.242000*%
G04 APERTURE END LIST*
G54D10*
X35500Y-29500D02*
X66500Y-29500D01*
X35000Y-30000D02*
X35500Y-29500D01*
X35000Y-32750D02*
X35000Y-30000D01*
X35500Y-33250D02*
X35000Y-32750D01*
X38500Y-33250D02*
X35500Y-33250D01*
X38750Y-33500D02*
X38500Y-33250D01*
X38750Y-37500D02*
X38750Y-33500D01*
X38500Y-37750D02*
X38750Y-37500D01*
X35500Y-37750D02*
X38500Y-37750D01*
X35000Y-38250D02*
X35500Y-37750D01*
X35000Y-45000D02*
X35000Y-38250D01*
X35500Y-45500D02*
X35000Y-45000D01*
X39750Y-45500D02*
X35500Y-45500D01*
X40000Y-45750D02*
X39750Y-45500D01*
X40000Y-50000D02*
X40000Y-45750D01*
X40500Y-50500D02*
X40000Y-50000D01*
X66500Y-50500D02*
X40500Y-50500D01*
X67000Y-50000D02*
X67000Y-30000D01*
X66500Y-50500D02*
X67000Y-50000D01*
X66500Y-29500D02*
X67000Y-30000D01*
M02*
