G04 (Genere par PCBnew (20080825)) le 24/9/2009-02:43:00*
G01*
G70*
G90*
%MOIN*%
G04 Gerber Fmt 3.4, Leading zero omitted, Abs format*
%FSLAX34Y34*%
G04 APERTURE LIST*
%ADD10R,0.057000X0.057000*%
%ADD11C,0.055000*%
%ADD12R,0.060000X0.060000*%
%ADD13C,0.060000*%
%ADD14R,0.140000X0.080000*%
%ADD15R,0.080000X0.140000*%
%ADD16C,0.025000*%
%ADD17C,0.010000*%
%ADD18C,0.025000*%
%ADD19C,0.080000*%
%ADD20R,0.035000X0.055000*%
%ADD21R,0.055000X0.035000*%
%ADD22R,0.080000X0.160000*%
%ADD23R,0.020000X0.045000*%
%ADD24R,0.036000X0.036000*%
%ADD25R,0.076000X0.170000*%
%ADD26R,0.065000X0.120000*%
%ADD27R,0.240000X0.240000*%
%ADD28C,0.020000*%
%ADD29C,0.000000*%
%ADD30C,0.015000*%
%ADD31C,0.005000*%
%ADD32C,0.001000*%
%ADD33C,0.006000*%
%ADD34C,0.012000*%
%ADD35C,0.008000*%
%ADD36C,0.002600*%
%ADD37C,0.007000*%
%ADD38C,0.002500*%
%ADD39C,0.003500*%
%ADD40C,0.057000*%
%ADD41R,0.062000X0.062000*%
%ADD42C,0.062000*%
%ADD43R,0.142000X0.082000*%
%ADD44R,0.082000X0.142000*%
%ADD45R,0.037000X0.057000*%
%ADD46R,0.057000X0.037000*%
%ADD47R,0.082000X0.162000*%
%ADD48R,0.022000X0.047000*%
%ADD49R,0.038000X0.038000*%
%ADD50R,0.078000X0.172000*%
%ADD51R,0.067000X0.122000*%
%ADD52R,0.242000X0.242000*%
G04 APERTURE END LIST*
G54D10*
X60000Y-30500D03*
G54D40*
X59000Y-30500D03*
X58000Y-30500D03*
X57000Y-30500D03*
X56000Y-30500D03*
X55000Y-30500D03*
X54000Y-30500D03*
X53000Y-30500D03*
G54D10*
X51500Y-30500D03*
G54D40*
X50500Y-30500D03*
X49500Y-30500D03*
X48500Y-30500D03*
X47500Y-30500D03*
X46500Y-30500D03*
X45500Y-30500D03*
X44500Y-30500D03*
G54D10*
X55000Y-49500D03*
G54D40*
X56000Y-49500D03*
X57000Y-49500D03*
X58000Y-49500D03*
X59000Y-49500D03*
X60000Y-49500D03*
G54D10*
X48000Y-49500D03*
G54D40*
X49000Y-49500D03*
X50000Y-49500D03*
X51000Y-49500D03*
X52000Y-49500D03*
X53000Y-49500D03*
G54D41*
X66000Y-40250D03*
G54D42*
X65000Y-40250D03*
X66000Y-39250D03*
X65000Y-39250D03*
G54D41*
X66000Y-36500D03*
G54D42*
X65000Y-36500D03*
X66000Y-35500D03*
X65000Y-35500D03*
X66000Y-34500D03*
X65000Y-34500D03*
G54D45*
X56125Y-47000D03*
X56875Y-47000D03*
X58625Y-46000D03*
X59375Y-46000D03*
X56125Y-46000D03*
X56875Y-46000D03*
X45375Y-42000D03*
X44625Y-42000D03*
X52375Y-43000D03*
X51625Y-43000D03*
X59375Y-44000D03*
X58625Y-44000D03*
X44625Y-40000D03*
X45375Y-40000D03*
X51625Y-41000D03*
X52375Y-41000D03*
X58625Y-42000D03*
X59375Y-42000D03*
X42875Y-42500D03*
X43625Y-42500D03*
X41375Y-42500D03*
X42125Y-42500D03*
X58625Y-47000D03*
X59375Y-47000D03*
X42125Y-45000D03*
X42875Y-45000D03*
X44625Y-45000D03*
X45375Y-45000D03*
X44625Y-44000D03*
X45375Y-44000D03*
X42125Y-44000D03*
X42875Y-44000D03*
X49125Y-46000D03*
X49875Y-46000D03*
X51625Y-46000D03*
X52375Y-46000D03*
X51625Y-45000D03*
X52375Y-45000D03*
X49125Y-45000D03*
X49875Y-45000D03*
G54D46*
X41500Y-48375D03*
X41500Y-47625D03*
G54D45*
X44625Y-43000D03*
X45375Y-43000D03*
X51625Y-44000D03*
X52375Y-44000D03*
X58625Y-45000D03*
X59375Y-45000D03*
G54D47*
X51400Y-35000D03*
X53600Y-35000D03*
X44400Y-34000D03*
X46600Y-34000D03*
X58400Y-36500D03*
X60600Y-36500D03*
G54D48*
X42500Y-49100D03*
X43000Y-49100D03*
X43500Y-49100D03*
X44000Y-49100D03*
X44500Y-49100D03*
X45000Y-49100D03*
X45500Y-49100D03*
X45500Y-47000D03*
X45000Y-47000D03*
X44500Y-47000D03*
X44000Y-47000D03*
X43500Y-47000D03*
X43000Y-47000D03*
X42500Y-47000D03*
X50750Y-36450D03*
X50750Y-38550D03*
X51250Y-36450D03*
X51750Y-36450D03*
X52250Y-36450D03*
X51250Y-38550D03*
X51750Y-38550D03*
X52250Y-38550D03*
X43750Y-35450D03*
X43750Y-37550D03*
X44250Y-35450D03*
X44750Y-35450D03*
X45250Y-35450D03*
X44250Y-37550D03*
X44750Y-37550D03*
X45250Y-37550D03*
X57750Y-37950D03*
X57750Y-40050D03*
X58250Y-37950D03*
X58750Y-37950D03*
X59250Y-37950D03*
X58250Y-40050D03*
X58750Y-40050D03*
X59250Y-40050D03*
G54D49*
X61350Y-43900D03*
X60650Y-43900D03*
X61000Y-43100D03*
X47350Y-41900D03*
X46650Y-41900D03*
X47000Y-41100D03*
X54350Y-42900D03*
X53650Y-42900D03*
X54000Y-42100D03*
G54D50*
X48000Y-35838D03*
X48000Y-39162D03*
X55000Y-36838D03*
X55000Y-40162D03*
X62000Y-37838D03*
X62000Y-41162D03*
G54D51*
X42900Y-36500D03*
G54D52*
X42000Y-39000D03*
G54D51*
X41100Y-36500D03*
G54D45*
X52375Y-47000D03*
X51625Y-47000D03*
X49875Y-47000D03*
X49125Y-47000D03*
X49875Y-48000D03*
X49125Y-48000D03*
G54D46*
X54000Y-49625D03*
X54000Y-48875D03*
G54D45*
X44625Y-41000D03*
X45375Y-41000D03*
X51625Y-42000D03*
X52375Y-42000D03*
X58625Y-43000D03*
X59375Y-43000D03*
X43625Y-41500D03*
X42875Y-41500D03*
X41375Y-41500D03*
X42125Y-41500D03*
G54D41*
X66000Y-45500D03*
G54D42*
X65000Y-45500D03*
X66000Y-44500D03*
X65000Y-44500D03*
G54D45*
X53625Y-45500D03*
X54375Y-45500D03*
X60625Y-46500D03*
X61375Y-46500D03*
G54D46*
X64500Y-48375D03*
X64500Y-47625D03*
G54D45*
X46625Y-44500D03*
X47375Y-44500D03*
G54D46*
X63500Y-47625D03*
X63500Y-48375D03*
G54D49*
X61350Y-45400D03*
X60650Y-45400D03*
X61000Y-44600D03*
X47350Y-43400D03*
X46650Y-43400D03*
X47000Y-42600D03*
X54350Y-44400D03*
X53650Y-44400D03*
X54000Y-43600D03*
G54D45*
X65875Y-49500D03*
X66625Y-49500D03*
X64375Y-49500D03*
X65125Y-49500D03*
G54D49*
X66600Y-48400D03*
X65900Y-48400D03*
X66250Y-47600D03*
M02*
