M48
;DRILL file {PCBnew (20080825)} date 25/9/2009-04:09:04
;FORMAT={-.-/ absolute / inch / decimal}
R,T
VER,1
FMAT,2
INCH,TZ
TCST,OFF
ICI,OFF
ATC,ON
T1C0.015
T2C0.032
T3C0.040
%
M47
G05
M72
T1
X4.125Y4.825
X4.137Y4.150
X4.150Y4.325
X4.150Y4.575
X4.175Y4.550
X4.200Y4.150
X4.225Y3.375
X4.225Y3.400
X4.225Y3.625
X4.225Y3.675
X4.250Y3.375
X4.250Y3.400
X4.275Y3.625
X4.275Y3.675
X4.400Y4.700
X4.400Y4.800
X4.425Y3.755
X4.440Y3.400
X4.450Y3.150
X4.450Y4.000
X4.463Y4.200
X4.475Y3.500
X4.475Y3.550
X4.475Y3.755
X4.500Y3.200
X4.500Y4.350
X4.500Y4.550
X4.525Y3.500
X4.525Y3.550
X4.525Y3.755
X4.550Y4.000
X4.550Y4.400
X4.550Y4.500
X4.550Y4.725
X4.575Y4.800
X4.660Y3.400
X4.700Y3.800
X4.750Y4.450
X4.800Y3.916
X4.801Y3.850
X4.825Y3.650
X4.850Y3.675
X4.850Y3.950
X4.850Y4.525
X4.850Y4.725
X4.875Y3.700
X4.900Y4.016
X4.900Y4.800
X4.912Y4.600
X4.925Y3.475
X4.925Y3.500
X4.925Y3.700
X4.950Y3.475
X4.950Y3.500
X4.950Y4.000
X5.050Y4.600
X5.050Y4.750
X5.125Y3.855
X5.140Y3.500
X5.150Y4.100
X5.162Y4.300
X5.175Y3.600
X5.175Y3.650
X5.175Y3.855
X5.200Y4.450
X5.200Y4.650
X5.225Y3.600
X5.225Y3.650
X5.225Y3.855
X5.250Y4.100
X5.250Y4.500
X5.250Y4.600
X5.360Y3.500
X5.400Y3.900
X5.400Y4.675
X5.400Y4.887
X5.450Y4.550
X5.525Y4.025
X5.550Y3.800
X5.550Y4.050
X5.575Y3.825
X5.575Y4.075
X5.600Y3.850
X5.600Y4.100
X5.600Y4.800
X5.625Y3.650
X5.625Y3.675
X5.625Y3.875
X5.650Y3.650
X5.650Y3.675
X5.700Y4.775
X5.750Y4.650
X5.750Y4.825
X5.775Y4.700
X5.775Y4.850
X5.800Y4.750
X5.825Y4.005
X5.826Y3.800
X5.840Y3.650
X5.850Y3.750
X5.850Y4.200
X5.862Y4.400
X5.875Y3.800
X5.875Y4.005
X5.925Y3.800
X5.925Y4.005
X5.950Y4.200
X5.950Y4.600
X5.950Y4.700
X6.000Y4.700
X6.060Y3.650
X6.075Y4.050
X6.150Y4.650
X6.200Y4.050
X6.250Y4.000
X6.250Y4.050
X6.300Y4.025
X6.400Y4.800
X6.400Y5.000
X6.500Y4.700
X6.500Y4.750
X6.500Y4.875
X6.525Y5.025
T2
X4.450Y3.050
X4.550Y3.050
X4.650Y3.050
X4.750Y3.050
X4.800Y4.950
X4.850Y3.050
X4.900Y4.950
X4.950Y3.050
X5.000Y4.950
X5.050Y3.050
X5.100Y4.950
X5.150Y3.050
X5.200Y4.950
X5.300Y3.050
X5.300Y4.950
X5.400Y3.050
X5.500Y3.050
X5.500Y4.950
X5.600Y3.050
X5.600Y4.950
X5.700Y3.050
X5.700Y4.950
X5.800Y3.050
X5.800Y4.950
X5.900Y3.050
X5.900Y4.950
X6.000Y3.050
X6.000Y4.950
T3
X6.500Y3.450
X6.500Y3.550
X6.500Y3.650
X6.500Y3.925
X6.500Y4.025
X6.500Y4.450
X6.500Y4.550
X6.600Y3.450
X6.600Y3.550
X6.600Y3.650
X6.600Y3.925
X6.600Y4.025
X6.600Y4.450
X6.600Y4.550
T0
M30
