G04 (Genere par PCBnew (20080825)) le 24/9/2009-02:43:00*
G01*
G70*
G90*
%MOIN*%
G04 Gerber Fmt 3.4, Leading zero omitted, Abs format*
%FSLAX34Y34*%
G04 APERTURE LIST*
%ADD10C,0.015000*%
%ADD11C,0.055000*%
%ADD12R,0.060000X0.060000*%
%ADD13C,0.060000*%
%ADD14R,0.140000X0.080000*%
%ADD15R,0.080000X0.140000*%
%ADD16C,0.025000*%
%ADD17C,0.010000*%
%ADD18C,0.025000*%
%ADD19C,0.080000*%
%ADD20R,0.035000X0.055000*%
%ADD21R,0.055000X0.035000*%
%ADD22R,0.080000X0.160000*%
%ADD23R,0.020000X0.045000*%
%ADD24R,0.036000X0.036000*%
%ADD25R,0.076000X0.170000*%
%ADD26R,0.065000X0.120000*%
%ADD27R,0.240000X0.240000*%
%ADD28C,0.020000*%
%ADD29C,0.000000*%
%ADD30C,0.015000*%
%ADD31C,0.005000*%
%ADD32C,0.001000*%
%ADD33C,0.006000*%
%ADD34C,0.012000*%
%ADD35C,0.008000*%
%ADD36C,0.002600*%
%ADD37C,0.007000*%
%ADD38C,0.002500*%
%ADD39C,0.003500*%
%ADD40C,0.057000*%
%ADD41R,0.062000X0.062000*%
%ADD42C,0.062000*%
%ADD43R,0.142000X0.082000*%
%ADD44R,0.082000X0.142000*%
%ADD45R,0.037000X0.057000*%
%ADD46R,0.057000X0.037000*%
%ADD47R,0.082000X0.162000*%
%ADD48R,0.022000X0.047000*%
%ADD49R,0.038000X0.038000*%
%ADD50R,0.078000X0.172000*%
%ADD51R,0.067000X0.122000*%
%ADD52R,0.242000X0.242000*%
G04 APERTURE END LIST*
G54D10*
X40000Y-45500D02*
X35000Y-45500D01*
X40000Y-50500D02*
X40000Y-45500D01*
X38750Y-33250D02*
X35000Y-33250D01*
X38750Y-37750D02*
X35000Y-37750D01*
X38750Y-33250D02*
X38750Y-37750D01*
X61000Y-50000D02*
X61000Y-50500D01*
X60000Y-29500D02*
X60500Y-30000D01*
X35000Y-29500D02*
X60000Y-29500D01*
X35000Y-50500D02*
X35000Y-29500D01*
X61000Y-50500D02*
X35000Y-50500D01*
G54D33*
X64200Y-46759D02*
X63934Y-46759D01*
X64023Y-46759D02*
X63934Y-46684D01*
X63934Y-46684D02*
X63934Y-46571D01*
X63934Y-46571D02*
X64023Y-46496D01*
X64067Y-46366D02*
X64067Y-46103D01*
X64067Y-46103D02*
X63978Y-46103D01*
X63978Y-46103D02*
X63934Y-46141D01*
X63934Y-46141D02*
X63934Y-46328D01*
X63934Y-46328D02*
X63978Y-46366D01*
X63978Y-46366D02*
X64156Y-46366D01*
X64156Y-46366D02*
X64200Y-46328D01*
X64200Y-46328D02*
X64200Y-46141D01*
X64200Y-46141D02*
X64156Y-46103D01*
X64156Y-45748D02*
X64200Y-45785D01*
X64200Y-45785D02*
X64200Y-45898D01*
X64200Y-45898D02*
X64156Y-45935D01*
X64156Y-45935D02*
X63800Y-45935D01*
X63934Y-45935D02*
X63934Y-45823D01*
X64200Y-44168D02*
X64200Y-44018D01*
X64200Y-44093D02*
X63800Y-44093D01*
X63800Y-44168D02*
X63800Y-44018D01*
X64200Y-43775D02*
X64156Y-43813D01*
X64156Y-43813D02*
X63978Y-43813D01*
X63978Y-43813D02*
X63934Y-43775D01*
X63934Y-43775D02*
X63934Y-43588D01*
X63934Y-43588D02*
X63978Y-43550D01*
X63978Y-43550D02*
X64156Y-43550D01*
X64156Y-43550D02*
X64200Y-43588D01*
X64200Y-43588D02*
X64200Y-43775D01*
X63934Y-43420D02*
X64112Y-43420D01*
X64112Y-43420D02*
X64200Y-43345D01*
X64200Y-43345D02*
X64200Y-43232D01*
X64200Y-43232D02*
X64112Y-43157D01*
X64112Y-43157D02*
X63934Y-43157D01*
X64156Y-42802D02*
X64200Y-42839D01*
X64200Y-42839D02*
X64200Y-42952D01*
X64200Y-42952D02*
X64156Y-42989D01*
X64156Y-42989D02*
X63800Y-42989D01*
X63934Y-42989D02*
X63934Y-42877D01*
G54D34*
X65795Y-41406D02*
X65795Y-41031D01*
X65769Y-38045D02*
X66219Y-38045D01*
X65994Y-38312D02*
X65994Y-37778D01*
X62850Y-34481D02*
X63650Y-34331D01*
X63650Y-34331D02*
X63384Y-34181D01*
X63384Y-34181D02*
X63650Y-34031D01*
X63650Y-34031D02*
X62850Y-33881D01*
X62850Y-35731D02*
X63650Y-35431D01*
X63650Y-35431D02*
X62850Y-35131D01*
X62850Y-36731D02*
X63562Y-36731D01*
X63562Y-36731D02*
X63650Y-36656D01*
X63650Y-36656D02*
X63650Y-36281D01*
X63650Y-36281D02*
X63562Y-36206D01*
X63562Y-36206D02*
X62850Y-36206D01*
G54D10*
X61000Y-30500D02*
X60500Y-30000D01*
X61000Y-35000D02*
X61000Y-30500D01*
X62000Y-36000D02*
X61000Y-35000D01*
X62000Y-49000D02*
X62000Y-36000D01*
X61000Y-50000D02*
X62000Y-49000D01*
G54D34*
X60500Y-31000D02*
X52500Y-31000D01*
X52500Y-31000D02*
X52500Y-30000D01*
X52500Y-30000D02*
X60500Y-30000D01*
X60500Y-30000D02*
X60500Y-31000D01*
X59500Y-30000D02*
X59500Y-31000D01*
X52000Y-31000D02*
X44000Y-31000D01*
X44000Y-31000D02*
X44000Y-30000D01*
X44000Y-30000D02*
X52000Y-30000D01*
X52000Y-30000D02*
X52000Y-31000D01*
X51000Y-30000D02*
X51000Y-31000D01*
X54500Y-50000D02*
X54500Y-49000D01*
X54500Y-49000D02*
X60500Y-49000D01*
X60500Y-49000D02*
X60500Y-50000D01*
X60500Y-50000D02*
X54500Y-50000D01*
X55500Y-50000D02*
X55500Y-49000D01*
X47500Y-50000D02*
X47500Y-49000D01*
X47500Y-49000D02*
X53500Y-49000D01*
X53500Y-49000D02*
X53500Y-50000D01*
X53500Y-50000D02*
X47500Y-50000D01*
X48500Y-50000D02*
X48500Y-49000D01*
X64500Y-40750D02*
X64500Y-38750D01*
X64500Y-38750D02*
X66500Y-38750D01*
X66500Y-38750D02*
X66500Y-40750D01*
X66500Y-40750D02*
X64500Y-40750D01*
G54D35*
X66500Y-34000D02*
X66500Y-37000D01*
X64500Y-37000D02*
X64500Y-34000D01*
X64500Y-34000D02*
X66500Y-34000D01*
X66500Y-37000D02*
X64500Y-37000D01*
G54D31*
X55900Y-47300D02*
X55875Y-47343D01*
X55875Y-47343D02*
X55825Y-47343D01*
X55825Y-47343D02*
X55800Y-47300D01*
X55800Y-47300D02*
X55825Y-47257D01*
X55825Y-47257D02*
X55875Y-47257D01*
X55875Y-47257D02*
X55900Y-47300D01*
X56300Y-47300D02*
X55900Y-47300D01*
X55900Y-47300D02*
X55900Y-46700D01*
X55900Y-46700D02*
X56300Y-46700D01*
X56700Y-46700D02*
X57100Y-46700D01*
X57100Y-46700D02*
X57100Y-47300D01*
X57100Y-47300D02*
X56700Y-47300D01*
X58400Y-46300D02*
X58375Y-46343D01*
X58375Y-46343D02*
X58325Y-46343D01*
X58325Y-46343D02*
X58300Y-46300D01*
X58300Y-46300D02*
X58325Y-46257D01*
X58325Y-46257D02*
X58375Y-46257D01*
X58375Y-46257D02*
X58400Y-46300D01*
X58800Y-46300D02*
X58400Y-46300D01*
X58400Y-46300D02*
X58400Y-45700D01*
X58400Y-45700D02*
X58800Y-45700D01*
X59200Y-45700D02*
X59600Y-45700D01*
X59600Y-45700D02*
X59600Y-46300D01*
X59600Y-46300D02*
X59200Y-46300D01*
X55900Y-46300D02*
X55875Y-46343D01*
X55875Y-46343D02*
X55825Y-46343D01*
X55825Y-46343D02*
X55800Y-46300D01*
X55800Y-46300D02*
X55825Y-46257D01*
X55825Y-46257D02*
X55875Y-46257D01*
X55875Y-46257D02*
X55900Y-46300D01*
X56300Y-46300D02*
X55900Y-46300D01*
X55900Y-46300D02*
X55900Y-45700D01*
X55900Y-45700D02*
X56300Y-45700D01*
X56700Y-45700D02*
X57100Y-45700D01*
X57100Y-45700D02*
X57100Y-46300D01*
X57100Y-46300D02*
X56700Y-46300D01*
X45700Y-41700D02*
X45675Y-41743D01*
X45675Y-41743D02*
X45625Y-41743D01*
X45625Y-41743D02*
X45600Y-41700D01*
X45600Y-41700D02*
X45625Y-41657D01*
X45625Y-41657D02*
X45675Y-41657D01*
X45675Y-41657D02*
X45700Y-41700D01*
X45200Y-41700D02*
X45600Y-41700D01*
X45600Y-41700D02*
X45600Y-42300D01*
X45600Y-42300D02*
X45200Y-42300D01*
X44800Y-42300D02*
X44400Y-42300D01*
X44400Y-42300D02*
X44400Y-41700D01*
X44400Y-41700D02*
X44800Y-41700D01*
X52700Y-42700D02*
X52675Y-42743D01*
X52675Y-42743D02*
X52625Y-42743D01*
X52625Y-42743D02*
X52600Y-42700D01*
X52600Y-42700D02*
X52625Y-42657D01*
X52625Y-42657D02*
X52675Y-42657D01*
X52675Y-42657D02*
X52700Y-42700D01*
X52200Y-42700D02*
X52600Y-42700D01*
X52600Y-42700D02*
X52600Y-43300D01*
X52600Y-43300D02*
X52200Y-43300D01*
X51800Y-43300D02*
X51400Y-43300D01*
X51400Y-43300D02*
X51400Y-42700D01*
X51400Y-42700D02*
X51800Y-42700D01*
X59700Y-43700D02*
X59675Y-43743D01*
X59675Y-43743D02*
X59625Y-43743D01*
X59625Y-43743D02*
X59600Y-43700D01*
X59600Y-43700D02*
X59625Y-43657D01*
X59625Y-43657D02*
X59675Y-43657D01*
X59675Y-43657D02*
X59700Y-43700D01*
X59200Y-43700D02*
X59600Y-43700D01*
X59600Y-43700D02*
X59600Y-44300D01*
X59600Y-44300D02*
X59200Y-44300D01*
X58800Y-44300D02*
X58400Y-44300D01*
X58400Y-44300D02*
X58400Y-43700D01*
X58400Y-43700D02*
X58800Y-43700D01*
X44400Y-40300D02*
X44375Y-40343D01*
X44375Y-40343D02*
X44325Y-40343D01*
X44325Y-40343D02*
X44300Y-40300D01*
X44300Y-40300D02*
X44325Y-40257D01*
X44325Y-40257D02*
X44375Y-40257D01*
X44375Y-40257D02*
X44400Y-40300D01*
X44800Y-40300D02*
X44400Y-40300D01*
X44400Y-40300D02*
X44400Y-39700D01*
X44400Y-39700D02*
X44800Y-39700D01*
X45200Y-39700D02*
X45600Y-39700D01*
X45600Y-39700D02*
X45600Y-40300D01*
X45600Y-40300D02*
X45200Y-40300D01*
X51400Y-41300D02*
X51375Y-41343D01*
X51375Y-41343D02*
X51325Y-41343D01*
X51325Y-41343D02*
X51300Y-41300D01*
X51300Y-41300D02*
X51325Y-41257D01*
X51325Y-41257D02*
X51375Y-41257D01*
X51375Y-41257D02*
X51400Y-41300D01*
X51800Y-41300D02*
X51400Y-41300D01*
X51400Y-41300D02*
X51400Y-40700D01*
X51400Y-40700D02*
X51800Y-40700D01*
X52200Y-40700D02*
X52600Y-40700D01*
X52600Y-40700D02*
X52600Y-41300D01*
X52600Y-41300D02*
X52200Y-41300D01*
X58400Y-42300D02*
X58375Y-42343D01*
X58375Y-42343D02*
X58325Y-42343D01*
X58325Y-42343D02*
X58300Y-42300D01*
X58300Y-42300D02*
X58325Y-42257D01*
X58325Y-42257D02*
X58375Y-42257D01*
X58375Y-42257D02*
X58400Y-42300D01*
X58800Y-42300D02*
X58400Y-42300D01*
X58400Y-42300D02*
X58400Y-41700D01*
X58400Y-41700D02*
X58800Y-41700D01*
X59200Y-41700D02*
X59600Y-41700D01*
X59600Y-41700D02*
X59600Y-42300D01*
X59600Y-42300D02*
X59200Y-42300D01*
X42650Y-42800D02*
X42625Y-42843D01*
X42625Y-42843D02*
X42575Y-42843D01*
X42575Y-42843D02*
X42550Y-42800D01*
X42550Y-42800D02*
X42575Y-42757D01*
X42575Y-42757D02*
X42625Y-42757D01*
X42625Y-42757D02*
X42650Y-42800D01*
X43050Y-42800D02*
X42650Y-42800D01*
X42650Y-42800D02*
X42650Y-42200D01*
X42650Y-42200D02*
X43050Y-42200D01*
X43450Y-42200D02*
X43850Y-42200D01*
X43850Y-42200D02*
X43850Y-42800D01*
X43850Y-42800D02*
X43450Y-42800D01*
X41150Y-42800D02*
X41125Y-42843D01*
X41125Y-42843D02*
X41075Y-42843D01*
X41075Y-42843D02*
X41050Y-42800D01*
X41050Y-42800D02*
X41075Y-42757D01*
X41075Y-42757D02*
X41125Y-42757D01*
X41125Y-42757D02*
X41150Y-42800D01*
X41550Y-42800D02*
X41150Y-42800D01*
X41150Y-42800D02*
X41150Y-42200D01*
X41150Y-42200D02*
X41550Y-42200D01*
X41950Y-42200D02*
X42350Y-42200D01*
X42350Y-42200D02*
X42350Y-42800D01*
X42350Y-42800D02*
X41950Y-42800D01*
X58400Y-47300D02*
X58375Y-47343D01*
X58375Y-47343D02*
X58325Y-47343D01*
X58325Y-47343D02*
X58300Y-47300D01*
X58300Y-47300D02*
X58325Y-47257D01*
X58325Y-47257D02*
X58375Y-47257D01*
X58375Y-47257D02*
X58400Y-47300D01*
X58800Y-47300D02*
X58400Y-47300D01*
X58400Y-47300D02*
X58400Y-46700D01*
X58400Y-46700D02*
X58800Y-46700D01*
X59200Y-46700D02*
X59600Y-46700D01*
X59600Y-46700D02*
X59600Y-47300D01*
X59600Y-47300D02*
X59200Y-47300D01*
X41900Y-45300D02*
X41875Y-45343D01*
X41875Y-45343D02*
X41825Y-45343D01*
X41825Y-45343D02*
X41800Y-45300D01*
X41800Y-45300D02*
X41825Y-45257D01*
X41825Y-45257D02*
X41875Y-45257D01*
X41875Y-45257D02*
X41900Y-45300D01*
X42300Y-45300D02*
X41900Y-45300D01*
X41900Y-45300D02*
X41900Y-44700D01*
X41900Y-44700D02*
X42300Y-44700D01*
X42700Y-44700D02*
X43100Y-44700D01*
X43100Y-44700D02*
X43100Y-45300D01*
X43100Y-45300D02*
X42700Y-45300D01*
X44400Y-45300D02*
X44375Y-45343D01*
X44375Y-45343D02*
X44325Y-45343D01*
X44325Y-45343D02*
X44300Y-45300D01*
X44300Y-45300D02*
X44325Y-45257D01*
X44325Y-45257D02*
X44375Y-45257D01*
X44375Y-45257D02*
X44400Y-45300D01*
X44800Y-45300D02*
X44400Y-45300D01*
X44400Y-45300D02*
X44400Y-44700D01*
X44400Y-44700D02*
X44800Y-44700D01*
X45200Y-44700D02*
X45600Y-44700D01*
X45600Y-44700D02*
X45600Y-45300D01*
X45600Y-45300D02*
X45200Y-45300D01*
X44400Y-44300D02*
X44375Y-44343D01*
X44375Y-44343D02*
X44325Y-44343D01*
X44325Y-44343D02*
X44300Y-44300D01*
X44300Y-44300D02*
X44325Y-44257D01*
X44325Y-44257D02*
X44375Y-44257D01*
X44375Y-44257D02*
X44400Y-44300D01*
X44800Y-44300D02*
X44400Y-44300D01*
X44400Y-44300D02*
X44400Y-43700D01*
X44400Y-43700D02*
X44800Y-43700D01*
X45200Y-43700D02*
X45600Y-43700D01*
X45600Y-43700D02*
X45600Y-44300D01*
X45600Y-44300D02*
X45200Y-44300D01*
X41900Y-44300D02*
X41875Y-44343D01*
X41875Y-44343D02*
X41825Y-44343D01*
X41825Y-44343D02*
X41800Y-44300D01*
X41800Y-44300D02*
X41825Y-44257D01*
X41825Y-44257D02*
X41875Y-44257D01*
X41875Y-44257D02*
X41900Y-44300D01*
X42300Y-44300D02*
X41900Y-44300D01*
X41900Y-44300D02*
X41900Y-43700D01*
X41900Y-43700D02*
X42300Y-43700D01*
X42700Y-43700D02*
X43100Y-43700D01*
X43100Y-43700D02*
X43100Y-44300D01*
X43100Y-44300D02*
X42700Y-44300D01*
X48900Y-46300D02*
X48875Y-46343D01*
X48875Y-46343D02*
X48825Y-46343D01*
X48825Y-46343D02*
X48800Y-46300D01*
X48800Y-46300D02*
X48825Y-46257D01*
X48825Y-46257D02*
X48875Y-46257D01*
X48875Y-46257D02*
X48900Y-46300D01*
X49300Y-46300D02*
X48900Y-46300D01*
X48900Y-46300D02*
X48900Y-45700D01*
X48900Y-45700D02*
X49300Y-45700D01*
X49700Y-45700D02*
X50100Y-45700D01*
X50100Y-45700D02*
X50100Y-46300D01*
X50100Y-46300D02*
X49700Y-46300D01*
X51400Y-46300D02*
X51375Y-46343D01*
X51375Y-46343D02*
X51325Y-46343D01*
X51325Y-46343D02*
X51300Y-46300D01*
X51300Y-46300D02*
X51325Y-46257D01*
X51325Y-46257D02*
X51375Y-46257D01*
X51375Y-46257D02*
X51400Y-46300D01*
X51800Y-46300D02*
X51400Y-46300D01*
X51400Y-46300D02*
X51400Y-45700D01*
X51400Y-45700D02*
X51800Y-45700D01*
X52200Y-45700D02*
X52600Y-45700D01*
X52600Y-45700D02*
X52600Y-46300D01*
X52600Y-46300D02*
X52200Y-46300D01*
X51400Y-45300D02*
X51375Y-45343D01*
X51375Y-45343D02*
X51325Y-45343D01*
X51325Y-45343D02*
X51300Y-45300D01*
X51300Y-45300D02*
X51325Y-45257D01*
X51325Y-45257D02*
X51375Y-45257D01*
X51375Y-45257D02*
X51400Y-45300D01*
X51800Y-45300D02*
X51400Y-45300D01*
X51400Y-45300D02*
X51400Y-44700D01*
X51400Y-44700D02*
X51800Y-44700D01*
X52200Y-44700D02*
X52600Y-44700D01*
X52600Y-44700D02*
X52600Y-45300D01*
X52600Y-45300D02*
X52200Y-45300D01*
X48900Y-45300D02*
X48875Y-45343D01*
X48875Y-45343D02*
X48825Y-45343D01*
X48825Y-45343D02*
X48800Y-45300D01*
X48800Y-45300D02*
X48825Y-45257D01*
X48825Y-45257D02*
X48875Y-45257D01*
X48875Y-45257D02*
X48900Y-45300D01*
X49300Y-45300D02*
X48900Y-45300D01*
X48900Y-45300D02*
X48900Y-44700D01*
X48900Y-44700D02*
X49300Y-44700D01*
X49700Y-44700D02*
X50100Y-44700D01*
X50100Y-44700D02*
X50100Y-45300D01*
X50100Y-45300D02*
X49700Y-45300D01*
X41850Y-48650D02*
X41825Y-48693D01*
X41825Y-48693D02*
X41775Y-48693D01*
X41775Y-48693D02*
X41750Y-48650D01*
X41750Y-48650D02*
X41775Y-48607D01*
X41775Y-48607D02*
X41825Y-48607D01*
X41825Y-48607D02*
X41850Y-48650D01*
X41800Y-48200D02*
X41800Y-48600D01*
X41800Y-48600D02*
X41200Y-48600D01*
X41200Y-48600D02*
X41200Y-48200D01*
X41200Y-47800D02*
X41200Y-47400D01*
X41200Y-47400D02*
X41800Y-47400D01*
X41800Y-47400D02*
X41800Y-47800D01*
X44400Y-43300D02*
X44375Y-43343D01*
X44375Y-43343D02*
X44325Y-43343D01*
X44325Y-43343D02*
X44300Y-43300D01*
X44300Y-43300D02*
X44325Y-43257D01*
X44325Y-43257D02*
X44375Y-43257D01*
X44375Y-43257D02*
X44400Y-43300D01*
X44800Y-43300D02*
X44400Y-43300D01*
X44400Y-43300D02*
X44400Y-42700D01*
X44400Y-42700D02*
X44800Y-42700D01*
X45200Y-42700D02*
X45600Y-42700D01*
X45600Y-42700D02*
X45600Y-43300D01*
X45600Y-43300D02*
X45200Y-43300D01*
X51400Y-44300D02*
X51375Y-44343D01*
X51375Y-44343D02*
X51325Y-44343D01*
X51325Y-44343D02*
X51300Y-44300D01*
X51300Y-44300D02*
X51325Y-44257D01*
X51325Y-44257D02*
X51375Y-44257D01*
X51375Y-44257D02*
X51400Y-44300D01*
X51800Y-44300D02*
X51400Y-44300D01*
X51400Y-44300D02*
X51400Y-43700D01*
X51400Y-43700D02*
X51800Y-43700D01*
X52200Y-43700D02*
X52600Y-43700D01*
X52600Y-43700D02*
X52600Y-44300D01*
X52600Y-44300D02*
X52200Y-44300D01*
X58400Y-45300D02*
X58375Y-45343D01*
X58375Y-45343D02*
X58325Y-45343D01*
X58325Y-45343D02*
X58300Y-45300D01*
X58300Y-45300D02*
X58325Y-45257D01*
X58325Y-45257D02*
X58375Y-45257D01*
X58375Y-45257D02*
X58400Y-45300D01*
X58800Y-45300D02*
X58400Y-45300D01*
X58400Y-45300D02*
X58400Y-44700D01*
X58400Y-44700D02*
X58800Y-44700D01*
X59200Y-44700D02*
X59600Y-44700D01*
X59600Y-44700D02*
X59600Y-45300D01*
X59600Y-45300D02*
X59200Y-45300D01*
G54D35*
X54050Y-35850D02*
X53150Y-35850D01*
X53150Y-34150D02*
X54050Y-34150D01*
X51850Y-35850D02*
X50950Y-35850D01*
X50950Y-34150D02*
X51850Y-34150D01*
X50950Y-35850D02*
X50950Y-34150D01*
X54050Y-34150D02*
X54050Y-35850D01*
X47050Y-34850D02*
X46150Y-34850D01*
X46150Y-33150D02*
X47050Y-33150D01*
X44850Y-34850D02*
X43950Y-34850D01*
X43950Y-33150D02*
X44850Y-33150D01*
X43950Y-34850D02*
X43950Y-33150D01*
X47050Y-33150D02*
X47050Y-34850D01*
X61050Y-37350D02*
X60150Y-37350D01*
X60150Y-35650D02*
X61050Y-35650D01*
X58850Y-37350D02*
X57950Y-37350D01*
X57950Y-35650D02*
X58850Y-35650D01*
X57950Y-37350D02*
X57950Y-35650D01*
X61050Y-35650D02*
X61050Y-37350D01*
X42100Y-47300D02*
X45900Y-47300D01*
X45900Y-47300D02*
X45900Y-48800D01*
X45900Y-48800D02*
X42100Y-48800D01*
X42100Y-48800D02*
X42100Y-47300D01*
X42100Y-47800D02*
X42400Y-47800D01*
X42400Y-47800D02*
X42400Y-48200D01*
X42400Y-48200D02*
X42100Y-48200D01*
G54D31*
X50450Y-38200D02*
X50450Y-38250D01*
X50450Y-38250D02*
X52550Y-38250D01*
X52550Y-36750D02*
X50450Y-36750D01*
X50450Y-36750D02*
X50450Y-38200D01*
X50450Y-37300D02*
X50650Y-37300D01*
X50650Y-37300D02*
X50650Y-37700D01*
X50650Y-37700D02*
X50450Y-37700D01*
X52550Y-36750D02*
X52550Y-38250D01*
X43450Y-37200D02*
X43450Y-37250D01*
X43450Y-37250D02*
X45550Y-37250D01*
X45550Y-35750D02*
X43450Y-35750D01*
X43450Y-35750D02*
X43450Y-37200D01*
X43450Y-36300D02*
X43650Y-36300D01*
X43650Y-36300D02*
X43650Y-36700D01*
X43650Y-36700D02*
X43450Y-36700D01*
X45550Y-35750D02*
X45550Y-37250D01*
X57450Y-39700D02*
X57450Y-39750D01*
X57450Y-39750D02*
X59550Y-39750D01*
X59550Y-38250D02*
X57450Y-38250D01*
X57450Y-38250D02*
X57450Y-39700D01*
X57450Y-38800D02*
X57650Y-38800D01*
X57650Y-38800D02*
X57650Y-39200D01*
X57650Y-39200D02*
X57450Y-39200D01*
X59550Y-38250D02*
X59550Y-39750D01*
X61600Y-43650D02*
X60400Y-43650D01*
X60400Y-43650D02*
X60400Y-43350D01*
X60400Y-43350D02*
X61600Y-43350D01*
X61600Y-43350D02*
X61600Y-43650D01*
X47600Y-41650D02*
X46400Y-41650D01*
X46400Y-41650D02*
X46400Y-41350D01*
X46400Y-41350D02*
X47600Y-41350D01*
X47600Y-41350D02*
X47600Y-41650D01*
X54600Y-42650D02*
X53400Y-42650D01*
X53400Y-42650D02*
X53400Y-42350D01*
X53400Y-42350D02*
X54600Y-42350D01*
X54600Y-42350D02*
X54600Y-42650D01*
G54D36*
X47813Y-35188D02*
X47813Y-35625D01*
X47813Y-35625D02*
X48187Y-35625D01*
X48187Y-35188D02*
X48187Y-35625D01*
X47813Y-35188D02*
X48187Y-35188D01*
X47813Y-39375D02*
X47813Y-39812D01*
X47813Y-39812D02*
X48187Y-39812D01*
X48187Y-39375D02*
X48187Y-39812D01*
X47813Y-39375D02*
X48187Y-39375D01*
G54D37*
X50037Y-39500D02*
X48500Y-39500D01*
X47500Y-39500D02*
X45963Y-39500D01*
X45963Y-39500D02*
X45963Y-36375D01*
X45963Y-36375D02*
X46838Y-35500D01*
X46838Y-35500D02*
X47500Y-35500D01*
X50037Y-39500D02*
X50037Y-36375D01*
X50037Y-36375D02*
X49162Y-35500D01*
X49162Y-35500D02*
X48500Y-35500D01*
G54D31*
X49574Y-38562D02*
X46426Y-38562D01*
G54D38*
X49349Y-37500D02*
X49319Y-37780D01*
X49319Y-37780D02*
X49232Y-38048D01*
X49232Y-38048D02*
X49091Y-38292D01*
X49091Y-38292D02*
X48902Y-38502D01*
X48902Y-38502D02*
X48674Y-38668D01*
X48674Y-38668D02*
X48416Y-38782D01*
X48416Y-38782D02*
X48141Y-38841D01*
X48141Y-38841D02*
X47859Y-38841D01*
X47859Y-38841D02*
X47584Y-38782D01*
X47584Y-38782D02*
X47326Y-38668D01*
X47326Y-38668D02*
X47098Y-38502D01*
X47098Y-38502D02*
X46909Y-38292D01*
X46909Y-38292D02*
X46768Y-38048D01*
X46768Y-38048D02*
X46681Y-37780D01*
X46681Y-37780D02*
X46651Y-37500D01*
X46651Y-37500D02*
X46681Y-37220D01*
X46681Y-37220D02*
X46768Y-36952D01*
X46768Y-36952D02*
X46909Y-36708D01*
X46909Y-36708D02*
X47098Y-36498D01*
X47098Y-36498D02*
X47326Y-36332D01*
X47326Y-36332D02*
X47584Y-36218D01*
X47584Y-36218D02*
X47859Y-36159D01*
X47859Y-36159D02*
X48141Y-36159D01*
X48141Y-36159D02*
X48416Y-36218D01*
X48416Y-36218D02*
X48674Y-36332D01*
X48674Y-36332D02*
X48902Y-36498D01*
X48902Y-36498D02*
X49091Y-36708D01*
X49091Y-36708D02*
X49232Y-36952D01*
X49232Y-36952D02*
X49319Y-37220D01*
X49319Y-37220D02*
X49349Y-37500D01*
G54D36*
X54813Y-36188D02*
X54813Y-36625D01*
X54813Y-36625D02*
X55187Y-36625D01*
X55187Y-36188D02*
X55187Y-36625D01*
X54813Y-36188D02*
X55187Y-36188D01*
X54813Y-40375D02*
X54813Y-40812D01*
X54813Y-40812D02*
X55187Y-40812D01*
X55187Y-40375D02*
X55187Y-40812D01*
X54813Y-40375D02*
X55187Y-40375D01*
G54D37*
X57037Y-40500D02*
X55500Y-40500D01*
X54500Y-40500D02*
X52963Y-40500D01*
X52963Y-40500D02*
X52963Y-37375D01*
X52963Y-37375D02*
X53838Y-36500D01*
X53838Y-36500D02*
X54500Y-36500D01*
X57037Y-40500D02*
X57037Y-37375D01*
X57037Y-37375D02*
X56162Y-36500D01*
X56162Y-36500D02*
X55500Y-36500D01*
G54D31*
X56574Y-39562D02*
X53426Y-39562D01*
G54D38*
X56349Y-38500D02*
X56319Y-38780D01*
X56319Y-38780D02*
X56232Y-39048D01*
X56232Y-39048D02*
X56091Y-39292D01*
X56091Y-39292D02*
X55902Y-39502D01*
X55902Y-39502D02*
X55674Y-39668D01*
X55674Y-39668D02*
X55416Y-39782D01*
X55416Y-39782D02*
X55141Y-39841D01*
X55141Y-39841D02*
X54859Y-39841D01*
X54859Y-39841D02*
X54584Y-39782D01*
X54584Y-39782D02*
X54326Y-39668D01*
X54326Y-39668D02*
X54098Y-39502D01*
X54098Y-39502D02*
X53909Y-39292D01*
X53909Y-39292D02*
X53768Y-39048D01*
X53768Y-39048D02*
X53681Y-38780D01*
X53681Y-38780D02*
X53651Y-38500D01*
X53651Y-38500D02*
X53681Y-38220D01*
X53681Y-38220D02*
X53768Y-37952D01*
X53768Y-37952D02*
X53909Y-37708D01*
X53909Y-37708D02*
X54098Y-37498D01*
X54098Y-37498D02*
X54326Y-37332D01*
X54326Y-37332D02*
X54584Y-37218D01*
X54584Y-37218D02*
X54859Y-37159D01*
X54859Y-37159D02*
X55141Y-37159D01*
X55141Y-37159D02*
X55416Y-37218D01*
X55416Y-37218D02*
X55674Y-37332D01*
X55674Y-37332D02*
X55902Y-37498D01*
X55902Y-37498D02*
X56091Y-37708D01*
X56091Y-37708D02*
X56232Y-37952D01*
X56232Y-37952D02*
X56319Y-38220D01*
X56319Y-38220D02*
X56349Y-38500D01*
G54D36*
X61813Y-37188D02*
X61813Y-37625D01*
X61813Y-37625D02*
X62187Y-37625D01*
X62187Y-37188D02*
X62187Y-37625D01*
X61813Y-37188D02*
X62187Y-37188D01*
X61813Y-41375D02*
X61813Y-41812D01*
X61813Y-41812D02*
X62187Y-41812D01*
X62187Y-41375D02*
X62187Y-41812D01*
X61813Y-41375D02*
X62187Y-41375D01*
G54D37*
X64037Y-41500D02*
X62500Y-41500D01*
X61500Y-41500D02*
X59963Y-41500D01*
X59963Y-41500D02*
X59963Y-38375D01*
X59963Y-38375D02*
X60838Y-37500D01*
X60838Y-37500D02*
X61500Y-37500D01*
X64037Y-41500D02*
X64037Y-38375D01*
X64037Y-38375D02*
X63162Y-37500D01*
X63162Y-37500D02*
X62500Y-37500D01*
G54D31*
X63574Y-40562D02*
X60426Y-40562D01*
G54D38*
X63349Y-39500D02*
X63319Y-39780D01*
X63319Y-39780D02*
X63232Y-40048D01*
X63232Y-40048D02*
X63091Y-40292D01*
X63091Y-40292D02*
X62902Y-40502D01*
X62902Y-40502D02*
X62674Y-40668D01*
X62674Y-40668D02*
X62416Y-40782D01*
X62416Y-40782D02*
X62141Y-40841D01*
X62141Y-40841D02*
X61859Y-40841D01*
X61859Y-40841D02*
X61584Y-40782D01*
X61584Y-40782D02*
X61326Y-40668D01*
X61326Y-40668D02*
X61098Y-40502D01*
X61098Y-40502D02*
X60909Y-40292D01*
X60909Y-40292D02*
X60768Y-40048D01*
X60768Y-40048D02*
X60681Y-39780D01*
X60681Y-39780D02*
X60651Y-39500D01*
X60651Y-39500D02*
X60681Y-39220D01*
X60681Y-39220D02*
X60768Y-38952D01*
X60768Y-38952D02*
X60909Y-38708D01*
X60909Y-38708D02*
X61098Y-38498D01*
X61098Y-38498D02*
X61326Y-38332D01*
X61326Y-38332D02*
X61584Y-38218D01*
X61584Y-38218D02*
X61859Y-38159D01*
X61859Y-38159D02*
X62141Y-38159D01*
X62141Y-38159D02*
X62416Y-38218D01*
X62416Y-38218D02*
X62674Y-38332D01*
X62674Y-38332D02*
X62902Y-38498D01*
X62902Y-38498D02*
X63091Y-38708D01*
X63091Y-38708D02*
X63232Y-38952D01*
X63232Y-38952D02*
X63319Y-39220D01*
X63319Y-39220D02*
X63349Y-39500D01*
G54D31*
X41450Y-37100D02*
X41450Y-35850D01*
X41450Y-35850D02*
X40750Y-35850D01*
X40750Y-35850D02*
X40750Y-37100D01*
X43250Y-37100D02*
X43250Y-35850D01*
X43250Y-35850D02*
X42550Y-35850D01*
X42550Y-35850D02*
X42550Y-37100D01*
X40650Y-39500D02*
X40650Y-37100D01*
X40650Y-37100D02*
X43350Y-37100D01*
X43350Y-37100D02*
X43350Y-40200D01*
X43350Y-40250D02*
X40650Y-40250D01*
X40650Y-40200D02*
X40650Y-39500D01*
X52700Y-46700D02*
X52675Y-46743D01*
X52675Y-46743D02*
X52625Y-46743D01*
X52625Y-46743D02*
X52600Y-46700D01*
X52600Y-46700D02*
X52625Y-46657D01*
X52625Y-46657D02*
X52675Y-46657D01*
X52675Y-46657D02*
X52700Y-46700D01*
X52200Y-46700D02*
X52600Y-46700D01*
X52600Y-46700D02*
X52600Y-47300D01*
X52600Y-47300D02*
X52200Y-47300D01*
X51800Y-47300D02*
X51400Y-47300D01*
X51400Y-47300D02*
X51400Y-46700D01*
X51400Y-46700D02*
X51800Y-46700D01*
X50200Y-46700D02*
X50175Y-46743D01*
X50175Y-46743D02*
X50125Y-46743D01*
X50125Y-46743D02*
X50100Y-46700D01*
X50100Y-46700D02*
X50125Y-46657D01*
X50125Y-46657D02*
X50175Y-46657D01*
X50175Y-46657D02*
X50200Y-46700D01*
X49700Y-46700D02*
X50100Y-46700D01*
X50100Y-46700D02*
X50100Y-47300D01*
X50100Y-47300D02*
X49700Y-47300D01*
X49300Y-47300D02*
X48900Y-47300D01*
X48900Y-47300D02*
X48900Y-46700D01*
X48900Y-46700D02*
X49300Y-46700D01*
X50200Y-47700D02*
X50175Y-47743D01*
X50175Y-47743D02*
X50125Y-47743D01*
X50125Y-47743D02*
X50100Y-47700D01*
X50100Y-47700D02*
X50125Y-47657D01*
X50125Y-47657D02*
X50175Y-47657D01*
X50175Y-47657D02*
X50200Y-47700D01*
X49700Y-47700D02*
X50100Y-47700D01*
X50100Y-47700D02*
X50100Y-48300D01*
X50100Y-48300D02*
X49700Y-48300D01*
X49300Y-48300D02*
X48900Y-48300D01*
X48900Y-48300D02*
X48900Y-47700D01*
X48900Y-47700D02*
X49300Y-47700D01*
X54350Y-49900D02*
X54325Y-49943D01*
X54325Y-49943D02*
X54275Y-49943D01*
X54275Y-49943D02*
X54250Y-49900D01*
X54250Y-49900D02*
X54275Y-49857D01*
X54275Y-49857D02*
X54325Y-49857D01*
X54325Y-49857D02*
X54350Y-49900D01*
X54300Y-49450D02*
X54300Y-49850D01*
X54300Y-49850D02*
X53700Y-49850D01*
X53700Y-49850D02*
X53700Y-49450D01*
X53700Y-49050D02*
X53700Y-48650D01*
X53700Y-48650D02*
X54300Y-48650D01*
X54300Y-48650D02*
X54300Y-49050D01*
X44400Y-41300D02*
X44375Y-41343D01*
X44375Y-41343D02*
X44325Y-41343D01*
X44325Y-41343D02*
X44300Y-41300D01*
X44300Y-41300D02*
X44325Y-41257D01*
X44325Y-41257D02*
X44375Y-41257D01*
X44375Y-41257D02*
X44400Y-41300D01*
X44800Y-41300D02*
X44400Y-41300D01*
X44400Y-41300D02*
X44400Y-40700D01*
X44400Y-40700D02*
X44800Y-40700D01*
X45200Y-40700D02*
X45600Y-40700D01*
X45600Y-40700D02*
X45600Y-41300D01*
X45600Y-41300D02*
X45200Y-41300D01*
X51400Y-42300D02*
X51375Y-42343D01*
X51375Y-42343D02*
X51325Y-42343D01*
X51325Y-42343D02*
X51300Y-42300D01*
X51300Y-42300D02*
X51325Y-42257D01*
X51325Y-42257D02*
X51375Y-42257D01*
X51375Y-42257D02*
X51400Y-42300D01*
X51800Y-42300D02*
X51400Y-42300D01*
X51400Y-42300D02*
X51400Y-41700D01*
X51400Y-41700D02*
X51800Y-41700D01*
X52200Y-41700D02*
X52600Y-41700D01*
X52600Y-41700D02*
X52600Y-42300D01*
X52600Y-42300D02*
X52200Y-42300D01*
X58400Y-43300D02*
X58375Y-43343D01*
X58375Y-43343D02*
X58325Y-43343D01*
X58325Y-43343D02*
X58300Y-43300D01*
X58300Y-43300D02*
X58325Y-43257D01*
X58325Y-43257D02*
X58375Y-43257D01*
X58375Y-43257D02*
X58400Y-43300D01*
X58800Y-43300D02*
X58400Y-43300D01*
X58400Y-43300D02*
X58400Y-42700D01*
X58400Y-42700D02*
X58800Y-42700D01*
X59200Y-42700D02*
X59600Y-42700D01*
X59600Y-42700D02*
X59600Y-43300D01*
X59600Y-43300D02*
X59200Y-43300D01*
X43950Y-41200D02*
X43925Y-41243D01*
X43925Y-41243D02*
X43875Y-41243D01*
X43875Y-41243D02*
X43850Y-41200D01*
X43850Y-41200D02*
X43875Y-41157D01*
X43875Y-41157D02*
X43925Y-41157D01*
X43925Y-41157D02*
X43950Y-41200D01*
X43450Y-41200D02*
X43850Y-41200D01*
X43850Y-41200D02*
X43850Y-41800D01*
X43850Y-41800D02*
X43450Y-41800D01*
X43050Y-41800D02*
X42650Y-41800D01*
X42650Y-41800D02*
X42650Y-41200D01*
X42650Y-41200D02*
X43050Y-41200D01*
X41150Y-41800D02*
X41125Y-41843D01*
X41125Y-41843D02*
X41075Y-41843D01*
X41075Y-41843D02*
X41050Y-41800D01*
X41050Y-41800D02*
X41075Y-41757D01*
X41075Y-41757D02*
X41125Y-41757D01*
X41125Y-41757D02*
X41150Y-41800D01*
X41550Y-41800D02*
X41150Y-41800D01*
X41150Y-41800D02*
X41150Y-41200D01*
X41150Y-41200D02*
X41550Y-41200D01*
X41950Y-41200D02*
X42350Y-41200D01*
X42350Y-41200D02*
X42350Y-41800D01*
X42350Y-41800D02*
X41950Y-41800D01*
G54D34*
X64500Y-46000D02*
X64500Y-44000D01*
X64500Y-44000D02*
X66500Y-44000D01*
X66500Y-44000D02*
X66500Y-46000D01*
X66500Y-46000D02*
X64500Y-46000D01*
G54D31*
X53400Y-45800D02*
X53375Y-45843D01*
X53375Y-45843D02*
X53325Y-45843D01*
X53325Y-45843D02*
X53300Y-45800D01*
X53300Y-45800D02*
X53325Y-45757D01*
X53325Y-45757D02*
X53375Y-45757D01*
X53375Y-45757D02*
X53400Y-45800D01*
X53800Y-45800D02*
X53400Y-45800D01*
X53400Y-45800D02*
X53400Y-45200D01*
X53400Y-45200D02*
X53800Y-45200D01*
X54200Y-45200D02*
X54600Y-45200D01*
X54600Y-45200D02*
X54600Y-45800D01*
X54600Y-45800D02*
X54200Y-45800D01*
X60400Y-46800D02*
X60375Y-46843D01*
X60375Y-46843D02*
X60325Y-46843D01*
X60325Y-46843D02*
X60300Y-46800D01*
X60300Y-46800D02*
X60325Y-46757D01*
X60325Y-46757D02*
X60375Y-46757D01*
X60375Y-46757D02*
X60400Y-46800D01*
X60800Y-46800D02*
X60400Y-46800D01*
X60400Y-46800D02*
X60400Y-46200D01*
X60400Y-46200D02*
X60800Y-46200D01*
X61200Y-46200D02*
X61600Y-46200D01*
X61600Y-46200D02*
X61600Y-46800D01*
X61600Y-46800D02*
X61200Y-46800D01*
X64850Y-48650D02*
X64825Y-48693D01*
X64825Y-48693D02*
X64775Y-48693D01*
X64775Y-48693D02*
X64750Y-48650D01*
X64750Y-48650D02*
X64775Y-48607D01*
X64775Y-48607D02*
X64825Y-48607D01*
X64825Y-48607D02*
X64850Y-48650D01*
X64800Y-48200D02*
X64800Y-48600D01*
X64800Y-48600D02*
X64200Y-48600D01*
X64200Y-48600D02*
X64200Y-48200D01*
X64200Y-47800D02*
X64200Y-47400D01*
X64200Y-47400D02*
X64800Y-47400D01*
X64800Y-47400D02*
X64800Y-47800D01*
X46400Y-44800D02*
X46375Y-44843D01*
X46375Y-44843D02*
X46325Y-44843D01*
X46325Y-44843D02*
X46300Y-44800D01*
X46300Y-44800D02*
X46325Y-44757D01*
X46325Y-44757D02*
X46375Y-44757D01*
X46375Y-44757D02*
X46400Y-44800D01*
X46800Y-44800D02*
X46400Y-44800D01*
X46400Y-44800D02*
X46400Y-44200D01*
X46400Y-44200D02*
X46800Y-44200D01*
X47200Y-44200D02*
X47600Y-44200D01*
X47600Y-44200D02*
X47600Y-44800D01*
X47600Y-44800D02*
X47200Y-44800D01*
X63250Y-47350D02*
X63225Y-47393D01*
X63225Y-47393D02*
X63175Y-47393D01*
X63175Y-47393D02*
X63150Y-47350D01*
X63150Y-47350D02*
X63175Y-47307D01*
X63175Y-47307D02*
X63225Y-47307D01*
X63225Y-47307D02*
X63250Y-47350D01*
X63200Y-47800D02*
X63200Y-47400D01*
X63200Y-47400D02*
X63800Y-47400D01*
X63800Y-47400D02*
X63800Y-47800D01*
X63800Y-48200D02*
X63800Y-48600D01*
X63800Y-48600D02*
X63200Y-48600D01*
X63200Y-48600D02*
X63200Y-48200D01*
X61600Y-45150D02*
X60400Y-45150D01*
X60400Y-45150D02*
X60400Y-44850D01*
X60400Y-44850D02*
X61600Y-44850D01*
X61600Y-44850D02*
X61600Y-45150D01*
X47600Y-43150D02*
X46400Y-43150D01*
X46400Y-43150D02*
X46400Y-42850D01*
X46400Y-42850D02*
X47600Y-42850D01*
X47600Y-42850D02*
X47600Y-43150D01*
X54600Y-44150D02*
X53400Y-44150D01*
X53400Y-44150D02*
X53400Y-43850D01*
X53400Y-43850D02*
X54600Y-43850D01*
X54600Y-43850D02*
X54600Y-44150D01*
X65650Y-49800D02*
X65625Y-49843D01*
X65625Y-49843D02*
X65575Y-49843D01*
X65575Y-49843D02*
X65550Y-49800D01*
X65550Y-49800D02*
X65575Y-49757D01*
X65575Y-49757D02*
X65625Y-49757D01*
X65625Y-49757D02*
X65650Y-49800D01*
X66050Y-49800D02*
X65650Y-49800D01*
X65650Y-49800D02*
X65650Y-49200D01*
X65650Y-49200D02*
X66050Y-49200D01*
X66450Y-49200D02*
X66850Y-49200D01*
X66850Y-49200D02*
X66850Y-49800D01*
X66850Y-49800D02*
X66450Y-49800D01*
X64150Y-49800D02*
X64125Y-49843D01*
X64125Y-49843D02*
X64075Y-49843D01*
X64075Y-49843D02*
X64050Y-49800D01*
X64050Y-49800D02*
X64075Y-49757D01*
X64075Y-49757D02*
X64125Y-49757D01*
X64125Y-49757D02*
X64150Y-49800D01*
X64550Y-49800D02*
X64150Y-49800D01*
X64150Y-49800D02*
X64150Y-49200D01*
X64150Y-49200D02*
X64550Y-49200D01*
X64950Y-49200D02*
X65350Y-49200D01*
X65350Y-49200D02*
X65350Y-49800D01*
X65350Y-49800D02*
X64950Y-49800D01*
X66850Y-48150D02*
X65650Y-48150D01*
X65650Y-48150D02*
X65650Y-47850D01*
X65650Y-47850D02*
X66850Y-47850D01*
X66850Y-47850D02*
X66850Y-48150D01*
G54D32*
X60275Y-30225D02*
X60275Y-30775D01*
X60275Y-30775D02*
X59725Y-30775D01*
X59725Y-30775D02*
X59725Y-30225D01*
X59725Y-30225D02*
X60275Y-30225D01*
X59275Y-30500D02*
X59268Y-30557D01*
X59268Y-30557D02*
X59251Y-30611D01*
X59251Y-30611D02*
X59222Y-30661D01*
X59222Y-30661D02*
X59184Y-30704D01*
X59184Y-30704D02*
X59137Y-30738D01*
X59137Y-30738D02*
X59084Y-30761D01*
X59084Y-30761D02*
X59028Y-30773D01*
X59028Y-30773D02*
X58972Y-30773D01*
X58972Y-30773D02*
X58916Y-30761D01*
X58916Y-30761D02*
X58863Y-30738D01*
X58863Y-30738D02*
X58816Y-30704D01*
X58816Y-30704D02*
X58778Y-30661D01*
X58778Y-30661D02*
X58749Y-30611D01*
X58749Y-30611D02*
X58732Y-30557D01*
X58732Y-30557D02*
X58725Y-30500D01*
X58725Y-30500D02*
X58732Y-30443D01*
X58732Y-30443D02*
X58749Y-30389D01*
X58749Y-30389D02*
X58778Y-30339D01*
X58778Y-30339D02*
X58816Y-30296D01*
X58816Y-30296D02*
X58863Y-30262D01*
X58863Y-30262D02*
X58916Y-30239D01*
X58916Y-30239D02*
X58972Y-30227D01*
X58972Y-30227D02*
X59028Y-30227D01*
X59028Y-30227D02*
X59084Y-30239D01*
X59084Y-30239D02*
X59137Y-30262D01*
X59137Y-30262D02*
X59184Y-30296D01*
X59184Y-30296D02*
X59222Y-30339D01*
X59222Y-30339D02*
X59251Y-30389D01*
X59251Y-30389D02*
X59268Y-30443D01*
X59268Y-30443D02*
X59275Y-30500D01*
X58275Y-30500D02*
X58268Y-30557D01*
X58268Y-30557D02*
X58251Y-30611D01*
X58251Y-30611D02*
X58222Y-30661D01*
X58222Y-30661D02*
X58184Y-30704D01*
X58184Y-30704D02*
X58137Y-30738D01*
X58137Y-30738D02*
X58084Y-30761D01*
X58084Y-30761D02*
X58028Y-30773D01*
X58028Y-30773D02*
X57972Y-30773D01*
X57972Y-30773D02*
X57916Y-30761D01*
X57916Y-30761D02*
X57863Y-30738D01*
X57863Y-30738D02*
X57816Y-30704D01*
X57816Y-30704D02*
X57778Y-30661D01*
X57778Y-30661D02*
X57749Y-30611D01*
X57749Y-30611D02*
X57732Y-30557D01*
X57732Y-30557D02*
X57725Y-30500D01*
X57725Y-30500D02*
X57732Y-30443D01*
X57732Y-30443D02*
X57749Y-30389D01*
X57749Y-30389D02*
X57778Y-30339D01*
X57778Y-30339D02*
X57816Y-30296D01*
X57816Y-30296D02*
X57863Y-30262D01*
X57863Y-30262D02*
X57916Y-30239D01*
X57916Y-30239D02*
X57972Y-30227D01*
X57972Y-30227D02*
X58028Y-30227D01*
X58028Y-30227D02*
X58084Y-30239D01*
X58084Y-30239D02*
X58137Y-30262D01*
X58137Y-30262D02*
X58184Y-30296D01*
X58184Y-30296D02*
X58222Y-30339D01*
X58222Y-30339D02*
X58251Y-30389D01*
X58251Y-30389D02*
X58268Y-30443D01*
X58268Y-30443D02*
X58275Y-30500D01*
X57275Y-30500D02*
X57268Y-30557D01*
X57268Y-30557D02*
X57251Y-30611D01*
X57251Y-30611D02*
X57222Y-30661D01*
X57222Y-30661D02*
X57184Y-30704D01*
X57184Y-30704D02*
X57137Y-30738D01*
X57137Y-30738D02*
X57084Y-30761D01*
X57084Y-30761D02*
X57028Y-30773D01*
X57028Y-30773D02*
X56972Y-30773D01*
X56972Y-30773D02*
X56916Y-30761D01*
X56916Y-30761D02*
X56863Y-30738D01*
X56863Y-30738D02*
X56816Y-30704D01*
X56816Y-30704D02*
X56778Y-30661D01*
X56778Y-30661D02*
X56749Y-30611D01*
X56749Y-30611D02*
X56732Y-30557D01*
X56732Y-30557D02*
X56725Y-30500D01*
X56725Y-30500D02*
X56732Y-30443D01*
X56732Y-30443D02*
X56749Y-30389D01*
X56749Y-30389D02*
X56778Y-30339D01*
X56778Y-30339D02*
X56816Y-30296D01*
X56816Y-30296D02*
X56863Y-30262D01*
X56863Y-30262D02*
X56916Y-30239D01*
X56916Y-30239D02*
X56972Y-30227D01*
X56972Y-30227D02*
X57028Y-30227D01*
X57028Y-30227D02*
X57084Y-30239D01*
X57084Y-30239D02*
X57137Y-30262D01*
X57137Y-30262D02*
X57184Y-30296D01*
X57184Y-30296D02*
X57222Y-30339D01*
X57222Y-30339D02*
X57251Y-30389D01*
X57251Y-30389D02*
X57268Y-30443D01*
X57268Y-30443D02*
X57275Y-30500D01*
X56275Y-30500D02*
X56268Y-30557D01*
X56268Y-30557D02*
X56251Y-30611D01*
X56251Y-30611D02*
X56222Y-30661D01*
X56222Y-30661D02*
X56184Y-30704D01*
X56184Y-30704D02*
X56137Y-30738D01*
X56137Y-30738D02*
X56084Y-30761D01*
X56084Y-30761D02*
X56028Y-30773D01*
X56028Y-30773D02*
X55972Y-30773D01*
X55972Y-30773D02*
X55916Y-30761D01*
X55916Y-30761D02*
X55863Y-30738D01*
X55863Y-30738D02*
X55816Y-30704D01*
X55816Y-30704D02*
X55778Y-30661D01*
X55778Y-30661D02*
X55749Y-30611D01*
X55749Y-30611D02*
X55732Y-30557D01*
X55732Y-30557D02*
X55725Y-30500D01*
X55725Y-30500D02*
X55732Y-30443D01*
X55732Y-30443D02*
X55749Y-30389D01*
X55749Y-30389D02*
X55778Y-30339D01*
X55778Y-30339D02*
X55816Y-30296D01*
X55816Y-30296D02*
X55863Y-30262D01*
X55863Y-30262D02*
X55916Y-30239D01*
X55916Y-30239D02*
X55972Y-30227D01*
X55972Y-30227D02*
X56028Y-30227D01*
X56028Y-30227D02*
X56084Y-30239D01*
X56084Y-30239D02*
X56137Y-30262D01*
X56137Y-30262D02*
X56184Y-30296D01*
X56184Y-30296D02*
X56222Y-30339D01*
X56222Y-30339D02*
X56251Y-30389D01*
X56251Y-30389D02*
X56268Y-30443D01*
X56268Y-30443D02*
X56275Y-30500D01*
X55275Y-30500D02*
X55268Y-30557D01*
X55268Y-30557D02*
X55251Y-30611D01*
X55251Y-30611D02*
X55222Y-30661D01*
X55222Y-30661D02*
X55184Y-30704D01*
X55184Y-30704D02*
X55137Y-30738D01*
X55137Y-30738D02*
X55084Y-30761D01*
X55084Y-30761D02*
X55028Y-30773D01*
X55028Y-30773D02*
X54972Y-30773D01*
X54972Y-30773D02*
X54916Y-30761D01*
X54916Y-30761D02*
X54863Y-30738D01*
X54863Y-30738D02*
X54816Y-30704D01*
X54816Y-30704D02*
X54778Y-30661D01*
X54778Y-30661D02*
X54749Y-30611D01*
X54749Y-30611D02*
X54732Y-30557D01*
X54732Y-30557D02*
X54725Y-30500D01*
X54725Y-30500D02*
X54732Y-30443D01*
X54732Y-30443D02*
X54749Y-30389D01*
X54749Y-30389D02*
X54778Y-30339D01*
X54778Y-30339D02*
X54816Y-30296D01*
X54816Y-30296D02*
X54863Y-30262D01*
X54863Y-30262D02*
X54916Y-30239D01*
X54916Y-30239D02*
X54972Y-30227D01*
X54972Y-30227D02*
X55028Y-30227D01*
X55028Y-30227D02*
X55084Y-30239D01*
X55084Y-30239D02*
X55137Y-30262D01*
X55137Y-30262D02*
X55184Y-30296D01*
X55184Y-30296D02*
X55222Y-30339D01*
X55222Y-30339D02*
X55251Y-30389D01*
X55251Y-30389D02*
X55268Y-30443D01*
X55268Y-30443D02*
X55275Y-30500D01*
X54275Y-30500D02*
X54268Y-30557D01*
X54268Y-30557D02*
X54251Y-30611D01*
X54251Y-30611D02*
X54222Y-30661D01*
X54222Y-30661D02*
X54184Y-30704D01*
X54184Y-30704D02*
X54137Y-30738D01*
X54137Y-30738D02*
X54084Y-30761D01*
X54084Y-30761D02*
X54028Y-30773D01*
X54028Y-30773D02*
X53972Y-30773D01*
X53972Y-30773D02*
X53916Y-30761D01*
X53916Y-30761D02*
X53863Y-30738D01*
X53863Y-30738D02*
X53816Y-30704D01*
X53816Y-30704D02*
X53778Y-30661D01*
X53778Y-30661D02*
X53749Y-30611D01*
X53749Y-30611D02*
X53732Y-30557D01*
X53732Y-30557D02*
X53725Y-30500D01*
X53725Y-30500D02*
X53732Y-30443D01*
X53732Y-30443D02*
X53749Y-30389D01*
X53749Y-30389D02*
X53778Y-30339D01*
X53778Y-30339D02*
X53816Y-30296D01*
X53816Y-30296D02*
X53863Y-30262D01*
X53863Y-30262D02*
X53916Y-30239D01*
X53916Y-30239D02*
X53972Y-30227D01*
X53972Y-30227D02*
X54028Y-30227D01*
X54028Y-30227D02*
X54084Y-30239D01*
X54084Y-30239D02*
X54137Y-30262D01*
X54137Y-30262D02*
X54184Y-30296D01*
X54184Y-30296D02*
X54222Y-30339D01*
X54222Y-30339D02*
X54251Y-30389D01*
X54251Y-30389D02*
X54268Y-30443D01*
X54268Y-30443D02*
X54275Y-30500D01*
X53275Y-30500D02*
X53268Y-30557D01*
X53268Y-30557D02*
X53251Y-30611D01*
X53251Y-30611D02*
X53222Y-30661D01*
X53222Y-30661D02*
X53184Y-30704D01*
X53184Y-30704D02*
X53137Y-30738D01*
X53137Y-30738D02*
X53084Y-30761D01*
X53084Y-30761D02*
X53028Y-30773D01*
X53028Y-30773D02*
X52972Y-30773D01*
X52972Y-30773D02*
X52916Y-30761D01*
X52916Y-30761D02*
X52863Y-30738D01*
X52863Y-30738D02*
X52816Y-30704D01*
X52816Y-30704D02*
X52778Y-30661D01*
X52778Y-30661D02*
X52749Y-30611D01*
X52749Y-30611D02*
X52732Y-30557D01*
X52732Y-30557D02*
X52725Y-30500D01*
X52725Y-30500D02*
X52732Y-30443D01*
X52732Y-30443D02*
X52749Y-30389D01*
X52749Y-30389D02*
X52778Y-30339D01*
X52778Y-30339D02*
X52816Y-30296D01*
X52816Y-30296D02*
X52863Y-30262D01*
X52863Y-30262D02*
X52916Y-30239D01*
X52916Y-30239D02*
X52972Y-30227D01*
X52972Y-30227D02*
X53028Y-30227D01*
X53028Y-30227D02*
X53084Y-30239D01*
X53084Y-30239D02*
X53137Y-30262D01*
X53137Y-30262D02*
X53184Y-30296D01*
X53184Y-30296D02*
X53222Y-30339D01*
X53222Y-30339D02*
X53251Y-30389D01*
X53251Y-30389D02*
X53268Y-30443D01*
X53268Y-30443D02*
X53275Y-30500D01*
X51775Y-30225D02*
X51775Y-30775D01*
X51775Y-30775D02*
X51225Y-30775D01*
X51225Y-30775D02*
X51225Y-30225D01*
X51225Y-30225D02*
X51775Y-30225D01*
X50775Y-30500D02*
X50768Y-30557D01*
X50768Y-30557D02*
X50751Y-30611D01*
X50751Y-30611D02*
X50722Y-30661D01*
X50722Y-30661D02*
X50684Y-30704D01*
X50684Y-30704D02*
X50637Y-30738D01*
X50637Y-30738D02*
X50584Y-30761D01*
X50584Y-30761D02*
X50528Y-30773D01*
X50528Y-30773D02*
X50472Y-30773D01*
X50472Y-30773D02*
X50416Y-30761D01*
X50416Y-30761D02*
X50363Y-30738D01*
X50363Y-30738D02*
X50316Y-30704D01*
X50316Y-30704D02*
X50278Y-30661D01*
X50278Y-30661D02*
X50249Y-30611D01*
X50249Y-30611D02*
X50232Y-30557D01*
X50232Y-30557D02*
X50225Y-30500D01*
X50225Y-30500D02*
X50232Y-30443D01*
X50232Y-30443D02*
X50249Y-30389D01*
X50249Y-30389D02*
X50278Y-30339D01*
X50278Y-30339D02*
X50316Y-30296D01*
X50316Y-30296D02*
X50363Y-30262D01*
X50363Y-30262D02*
X50416Y-30239D01*
X50416Y-30239D02*
X50472Y-30227D01*
X50472Y-30227D02*
X50528Y-30227D01*
X50528Y-30227D02*
X50584Y-30239D01*
X50584Y-30239D02*
X50637Y-30262D01*
X50637Y-30262D02*
X50684Y-30296D01*
X50684Y-30296D02*
X50722Y-30339D01*
X50722Y-30339D02*
X50751Y-30389D01*
X50751Y-30389D02*
X50768Y-30443D01*
X50768Y-30443D02*
X50775Y-30500D01*
X49775Y-30500D02*
X49768Y-30557D01*
X49768Y-30557D02*
X49751Y-30611D01*
X49751Y-30611D02*
X49722Y-30661D01*
X49722Y-30661D02*
X49684Y-30704D01*
X49684Y-30704D02*
X49637Y-30738D01*
X49637Y-30738D02*
X49584Y-30761D01*
X49584Y-30761D02*
X49528Y-30773D01*
X49528Y-30773D02*
X49472Y-30773D01*
X49472Y-30773D02*
X49416Y-30761D01*
X49416Y-30761D02*
X49363Y-30738D01*
X49363Y-30738D02*
X49316Y-30704D01*
X49316Y-30704D02*
X49278Y-30661D01*
X49278Y-30661D02*
X49249Y-30611D01*
X49249Y-30611D02*
X49232Y-30557D01*
X49232Y-30557D02*
X49225Y-30500D01*
X49225Y-30500D02*
X49232Y-30443D01*
X49232Y-30443D02*
X49249Y-30389D01*
X49249Y-30389D02*
X49278Y-30339D01*
X49278Y-30339D02*
X49316Y-30296D01*
X49316Y-30296D02*
X49363Y-30262D01*
X49363Y-30262D02*
X49416Y-30239D01*
X49416Y-30239D02*
X49472Y-30227D01*
X49472Y-30227D02*
X49528Y-30227D01*
X49528Y-30227D02*
X49584Y-30239D01*
X49584Y-30239D02*
X49637Y-30262D01*
X49637Y-30262D02*
X49684Y-30296D01*
X49684Y-30296D02*
X49722Y-30339D01*
X49722Y-30339D02*
X49751Y-30389D01*
X49751Y-30389D02*
X49768Y-30443D01*
X49768Y-30443D02*
X49775Y-30500D01*
X48775Y-30500D02*
X48768Y-30557D01*
X48768Y-30557D02*
X48751Y-30611D01*
X48751Y-30611D02*
X48722Y-30661D01*
X48722Y-30661D02*
X48684Y-30704D01*
X48684Y-30704D02*
X48637Y-30738D01*
X48637Y-30738D02*
X48584Y-30761D01*
X48584Y-30761D02*
X48528Y-30773D01*
X48528Y-30773D02*
X48472Y-30773D01*
X48472Y-30773D02*
X48416Y-30761D01*
X48416Y-30761D02*
X48363Y-30738D01*
X48363Y-30738D02*
X48316Y-30704D01*
X48316Y-30704D02*
X48278Y-30661D01*
X48278Y-30661D02*
X48249Y-30611D01*
X48249Y-30611D02*
X48232Y-30557D01*
X48232Y-30557D02*
X48225Y-30500D01*
X48225Y-30500D02*
X48232Y-30443D01*
X48232Y-30443D02*
X48249Y-30389D01*
X48249Y-30389D02*
X48278Y-30339D01*
X48278Y-30339D02*
X48316Y-30296D01*
X48316Y-30296D02*
X48363Y-30262D01*
X48363Y-30262D02*
X48416Y-30239D01*
X48416Y-30239D02*
X48472Y-30227D01*
X48472Y-30227D02*
X48528Y-30227D01*
X48528Y-30227D02*
X48584Y-30239D01*
X48584Y-30239D02*
X48637Y-30262D01*
X48637Y-30262D02*
X48684Y-30296D01*
X48684Y-30296D02*
X48722Y-30339D01*
X48722Y-30339D02*
X48751Y-30389D01*
X48751Y-30389D02*
X48768Y-30443D01*
X48768Y-30443D02*
X48775Y-30500D01*
X47775Y-30500D02*
X47768Y-30557D01*
X47768Y-30557D02*
X47751Y-30611D01*
X47751Y-30611D02*
X47722Y-30661D01*
X47722Y-30661D02*
X47684Y-30704D01*
X47684Y-30704D02*
X47637Y-30738D01*
X47637Y-30738D02*
X47584Y-30761D01*
X47584Y-30761D02*
X47528Y-30773D01*
X47528Y-30773D02*
X47472Y-30773D01*
X47472Y-30773D02*
X47416Y-30761D01*
X47416Y-30761D02*
X47363Y-30738D01*
X47363Y-30738D02*
X47316Y-30704D01*
X47316Y-30704D02*
X47278Y-30661D01*
X47278Y-30661D02*
X47249Y-30611D01*
X47249Y-30611D02*
X47232Y-30557D01*
X47232Y-30557D02*
X47225Y-30500D01*
X47225Y-30500D02*
X47232Y-30443D01*
X47232Y-30443D02*
X47249Y-30389D01*
X47249Y-30389D02*
X47278Y-30339D01*
X47278Y-30339D02*
X47316Y-30296D01*
X47316Y-30296D02*
X47363Y-30262D01*
X47363Y-30262D02*
X47416Y-30239D01*
X47416Y-30239D02*
X47472Y-30227D01*
X47472Y-30227D02*
X47528Y-30227D01*
X47528Y-30227D02*
X47584Y-30239D01*
X47584Y-30239D02*
X47637Y-30262D01*
X47637Y-30262D02*
X47684Y-30296D01*
X47684Y-30296D02*
X47722Y-30339D01*
X47722Y-30339D02*
X47751Y-30389D01*
X47751Y-30389D02*
X47768Y-30443D01*
X47768Y-30443D02*
X47775Y-30500D01*
X46775Y-30500D02*
X46768Y-30557D01*
X46768Y-30557D02*
X46751Y-30611D01*
X46751Y-30611D02*
X46722Y-30661D01*
X46722Y-30661D02*
X46684Y-30704D01*
X46684Y-30704D02*
X46637Y-30738D01*
X46637Y-30738D02*
X46584Y-30761D01*
X46584Y-30761D02*
X46528Y-30773D01*
X46528Y-30773D02*
X46472Y-30773D01*
X46472Y-30773D02*
X46416Y-30761D01*
X46416Y-30761D02*
X46363Y-30738D01*
X46363Y-30738D02*
X46316Y-30704D01*
X46316Y-30704D02*
X46278Y-30661D01*
X46278Y-30661D02*
X46249Y-30611D01*
X46249Y-30611D02*
X46232Y-30557D01*
X46232Y-30557D02*
X46225Y-30500D01*
X46225Y-30500D02*
X46232Y-30443D01*
X46232Y-30443D02*
X46249Y-30389D01*
X46249Y-30389D02*
X46278Y-30339D01*
X46278Y-30339D02*
X46316Y-30296D01*
X46316Y-30296D02*
X46363Y-30262D01*
X46363Y-30262D02*
X46416Y-30239D01*
X46416Y-30239D02*
X46472Y-30227D01*
X46472Y-30227D02*
X46528Y-30227D01*
X46528Y-30227D02*
X46584Y-30239D01*
X46584Y-30239D02*
X46637Y-30262D01*
X46637Y-30262D02*
X46684Y-30296D01*
X46684Y-30296D02*
X46722Y-30339D01*
X46722Y-30339D02*
X46751Y-30389D01*
X46751Y-30389D02*
X46768Y-30443D01*
X46768Y-30443D02*
X46775Y-30500D01*
X45775Y-30500D02*
X45768Y-30557D01*
X45768Y-30557D02*
X45751Y-30611D01*
X45751Y-30611D02*
X45722Y-30661D01*
X45722Y-30661D02*
X45684Y-30704D01*
X45684Y-30704D02*
X45637Y-30738D01*
X45637Y-30738D02*
X45584Y-30761D01*
X45584Y-30761D02*
X45528Y-30773D01*
X45528Y-30773D02*
X45472Y-30773D01*
X45472Y-30773D02*
X45416Y-30761D01*
X45416Y-30761D02*
X45363Y-30738D01*
X45363Y-30738D02*
X45316Y-30704D01*
X45316Y-30704D02*
X45278Y-30661D01*
X45278Y-30661D02*
X45249Y-30611D01*
X45249Y-30611D02*
X45232Y-30557D01*
X45232Y-30557D02*
X45225Y-30500D01*
X45225Y-30500D02*
X45232Y-30443D01*
X45232Y-30443D02*
X45249Y-30389D01*
X45249Y-30389D02*
X45278Y-30339D01*
X45278Y-30339D02*
X45316Y-30296D01*
X45316Y-30296D02*
X45363Y-30262D01*
X45363Y-30262D02*
X45416Y-30239D01*
X45416Y-30239D02*
X45472Y-30227D01*
X45472Y-30227D02*
X45528Y-30227D01*
X45528Y-30227D02*
X45584Y-30239D01*
X45584Y-30239D02*
X45637Y-30262D01*
X45637Y-30262D02*
X45684Y-30296D01*
X45684Y-30296D02*
X45722Y-30339D01*
X45722Y-30339D02*
X45751Y-30389D01*
X45751Y-30389D02*
X45768Y-30443D01*
X45768Y-30443D02*
X45775Y-30500D01*
X44775Y-30500D02*
X44768Y-30557D01*
X44768Y-30557D02*
X44751Y-30611D01*
X44751Y-30611D02*
X44722Y-30661D01*
X44722Y-30661D02*
X44684Y-30704D01*
X44684Y-30704D02*
X44637Y-30738D01*
X44637Y-30738D02*
X44584Y-30761D01*
X44584Y-30761D02*
X44528Y-30773D01*
X44528Y-30773D02*
X44472Y-30773D01*
X44472Y-30773D02*
X44416Y-30761D01*
X44416Y-30761D02*
X44363Y-30738D01*
X44363Y-30738D02*
X44316Y-30704D01*
X44316Y-30704D02*
X44278Y-30661D01*
X44278Y-30661D02*
X44249Y-30611D01*
X44249Y-30611D02*
X44232Y-30557D01*
X44232Y-30557D02*
X44225Y-30500D01*
X44225Y-30500D02*
X44232Y-30443D01*
X44232Y-30443D02*
X44249Y-30389D01*
X44249Y-30389D02*
X44278Y-30339D01*
X44278Y-30339D02*
X44316Y-30296D01*
X44316Y-30296D02*
X44363Y-30262D01*
X44363Y-30262D02*
X44416Y-30239D01*
X44416Y-30239D02*
X44472Y-30227D01*
X44472Y-30227D02*
X44528Y-30227D01*
X44528Y-30227D02*
X44584Y-30239D01*
X44584Y-30239D02*
X44637Y-30262D01*
X44637Y-30262D02*
X44684Y-30296D01*
X44684Y-30296D02*
X44722Y-30339D01*
X44722Y-30339D02*
X44751Y-30389D01*
X44751Y-30389D02*
X44768Y-30443D01*
X44768Y-30443D02*
X44775Y-30500D01*
X54725Y-49775D02*
X54725Y-49225D01*
X54725Y-49225D02*
X55275Y-49225D01*
X55275Y-49225D02*
X55275Y-49775D01*
X55275Y-49775D02*
X54725Y-49775D01*
X56275Y-49500D02*
X56268Y-49557D01*
X56268Y-49557D02*
X56251Y-49611D01*
X56251Y-49611D02*
X56222Y-49661D01*
X56222Y-49661D02*
X56184Y-49704D01*
X56184Y-49704D02*
X56137Y-49738D01*
X56137Y-49738D02*
X56084Y-49761D01*
X56084Y-49761D02*
X56028Y-49773D01*
X56028Y-49773D02*
X55972Y-49773D01*
X55972Y-49773D02*
X55916Y-49761D01*
X55916Y-49761D02*
X55863Y-49738D01*
X55863Y-49738D02*
X55816Y-49704D01*
X55816Y-49704D02*
X55778Y-49661D01*
X55778Y-49661D02*
X55749Y-49611D01*
X55749Y-49611D02*
X55732Y-49557D01*
X55732Y-49557D02*
X55725Y-49500D01*
X55725Y-49500D02*
X55732Y-49443D01*
X55732Y-49443D02*
X55749Y-49389D01*
X55749Y-49389D02*
X55778Y-49339D01*
X55778Y-49339D02*
X55816Y-49296D01*
X55816Y-49296D02*
X55863Y-49262D01*
X55863Y-49262D02*
X55916Y-49239D01*
X55916Y-49239D02*
X55972Y-49227D01*
X55972Y-49227D02*
X56028Y-49227D01*
X56028Y-49227D02*
X56084Y-49239D01*
X56084Y-49239D02*
X56137Y-49262D01*
X56137Y-49262D02*
X56184Y-49296D01*
X56184Y-49296D02*
X56222Y-49339D01*
X56222Y-49339D02*
X56251Y-49389D01*
X56251Y-49389D02*
X56268Y-49443D01*
X56268Y-49443D02*
X56275Y-49500D01*
X57275Y-49500D02*
X57268Y-49557D01*
X57268Y-49557D02*
X57251Y-49611D01*
X57251Y-49611D02*
X57222Y-49661D01*
X57222Y-49661D02*
X57184Y-49704D01*
X57184Y-49704D02*
X57137Y-49738D01*
X57137Y-49738D02*
X57084Y-49761D01*
X57084Y-49761D02*
X57028Y-49773D01*
X57028Y-49773D02*
X56972Y-49773D01*
X56972Y-49773D02*
X56916Y-49761D01*
X56916Y-49761D02*
X56863Y-49738D01*
X56863Y-49738D02*
X56816Y-49704D01*
X56816Y-49704D02*
X56778Y-49661D01*
X56778Y-49661D02*
X56749Y-49611D01*
X56749Y-49611D02*
X56732Y-49557D01*
X56732Y-49557D02*
X56725Y-49500D01*
X56725Y-49500D02*
X56732Y-49443D01*
X56732Y-49443D02*
X56749Y-49389D01*
X56749Y-49389D02*
X56778Y-49339D01*
X56778Y-49339D02*
X56816Y-49296D01*
X56816Y-49296D02*
X56863Y-49262D01*
X56863Y-49262D02*
X56916Y-49239D01*
X56916Y-49239D02*
X56972Y-49227D01*
X56972Y-49227D02*
X57028Y-49227D01*
X57028Y-49227D02*
X57084Y-49239D01*
X57084Y-49239D02*
X57137Y-49262D01*
X57137Y-49262D02*
X57184Y-49296D01*
X57184Y-49296D02*
X57222Y-49339D01*
X57222Y-49339D02*
X57251Y-49389D01*
X57251Y-49389D02*
X57268Y-49443D01*
X57268Y-49443D02*
X57275Y-49500D01*
X58275Y-49500D02*
X58268Y-49557D01*
X58268Y-49557D02*
X58251Y-49611D01*
X58251Y-49611D02*
X58222Y-49661D01*
X58222Y-49661D02*
X58184Y-49704D01*
X58184Y-49704D02*
X58137Y-49738D01*
X58137Y-49738D02*
X58084Y-49761D01*
X58084Y-49761D02*
X58028Y-49773D01*
X58028Y-49773D02*
X57972Y-49773D01*
X57972Y-49773D02*
X57916Y-49761D01*
X57916Y-49761D02*
X57863Y-49738D01*
X57863Y-49738D02*
X57816Y-49704D01*
X57816Y-49704D02*
X57778Y-49661D01*
X57778Y-49661D02*
X57749Y-49611D01*
X57749Y-49611D02*
X57732Y-49557D01*
X57732Y-49557D02*
X57725Y-49500D01*
X57725Y-49500D02*
X57732Y-49443D01*
X57732Y-49443D02*
X57749Y-49389D01*
X57749Y-49389D02*
X57778Y-49339D01*
X57778Y-49339D02*
X57816Y-49296D01*
X57816Y-49296D02*
X57863Y-49262D01*
X57863Y-49262D02*
X57916Y-49239D01*
X57916Y-49239D02*
X57972Y-49227D01*
X57972Y-49227D02*
X58028Y-49227D01*
X58028Y-49227D02*
X58084Y-49239D01*
X58084Y-49239D02*
X58137Y-49262D01*
X58137Y-49262D02*
X58184Y-49296D01*
X58184Y-49296D02*
X58222Y-49339D01*
X58222Y-49339D02*
X58251Y-49389D01*
X58251Y-49389D02*
X58268Y-49443D01*
X58268Y-49443D02*
X58275Y-49500D01*
X59275Y-49500D02*
X59268Y-49557D01*
X59268Y-49557D02*
X59251Y-49611D01*
X59251Y-49611D02*
X59222Y-49661D01*
X59222Y-49661D02*
X59184Y-49704D01*
X59184Y-49704D02*
X59137Y-49738D01*
X59137Y-49738D02*
X59084Y-49761D01*
X59084Y-49761D02*
X59028Y-49773D01*
X59028Y-49773D02*
X58972Y-49773D01*
X58972Y-49773D02*
X58916Y-49761D01*
X58916Y-49761D02*
X58863Y-49738D01*
X58863Y-49738D02*
X58816Y-49704D01*
X58816Y-49704D02*
X58778Y-49661D01*
X58778Y-49661D02*
X58749Y-49611D01*
X58749Y-49611D02*
X58732Y-49557D01*
X58732Y-49557D02*
X58725Y-49500D01*
X58725Y-49500D02*
X58732Y-49443D01*
X58732Y-49443D02*
X58749Y-49389D01*
X58749Y-49389D02*
X58778Y-49339D01*
X58778Y-49339D02*
X58816Y-49296D01*
X58816Y-49296D02*
X58863Y-49262D01*
X58863Y-49262D02*
X58916Y-49239D01*
X58916Y-49239D02*
X58972Y-49227D01*
X58972Y-49227D02*
X59028Y-49227D01*
X59028Y-49227D02*
X59084Y-49239D01*
X59084Y-49239D02*
X59137Y-49262D01*
X59137Y-49262D02*
X59184Y-49296D01*
X59184Y-49296D02*
X59222Y-49339D01*
X59222Y-49339D02*
X59251Y-49389D01*
X59251Y-49389D02*
X59268Y-49443D01*
X59268Y-49443D02*
X59275Y-49500D01*
X60275Y-49500D02*
X60268Y-49557D01*
X60268Y-49557D02*
X60251Y-49611D01*
X60251Y-49611D02*
X60222Y-49661D01*
X60222Y-49661D02*
X60184Y-49704D01*
X60184Y-49704D02*
X60137Y-49738D01*
X60137Y-49738D02*
X60084Y-49761D01*
X60084Y-49761D02*
X60028Y-49773D01*
X60028Y-49773D02*
X59972Y-49773D01*
X59972Y-49773D02*
X59916Y-49761D01*
X59916Y-49761D02*
X59863Y-49738D01*
X59863Y-49738D02*
X59816Y-49704D01*
X59816Y-49704D02*
X59778Y-49661D01*
X59778Y-49661D02*
X59749Y-49611D01*
X59749Y-49611D02*
X59732Y-49557D01*
X59732Y-49557D02*
X59725Y-49500D01*
X59725Y-49500D02*
X59732Y-49443D01*
X59732Y-49443D02*
X59749Y-49389D01*
X59749Y-49389D02*
X59778Y-49339D01*
X59778Y-49339D02*
X59816Y-49296D01*
X59816Y-49296D02*
X59863Y-49262D01*
X59863Y-49262D02*
X59916Y-49239D01*
X59916Y-49239D02*
X59972Y-49227D01*
X59972Y-49227D02*
X60028Y-49227D01*
X60028Y-49227D02*
X60084Y-49239D01*
X60084Y-49239D02*
X60137Y-49262D01*
X60137Y-49262D02*
X60184Y-49296D01*
X60184Y-49296D02*
X60222Y-49339D01*
X60222Y-49339D02*
X60251Y-49389D01*
X60251Y-49389D02*
X60268Y-49443D01*
X60268Y-49443D02*
X60275Y-49500D01*
X47725Y-49775D02*
X47725Y-49225D01*
X47725Y-49225D02*
X48275Y-49225D01*
X48275Y-49225D02*
X48275Y-49775D01*
X48275Y-49775D02*
X47725Y-49775D01*
X49275Y-49500D02*
X49268Y-49557D01*
X49268Y-49557D02*
X49251Y-49611D01*
X49251Y-49611D02*
X49222Y-49661D01*
X49222Y-49661D02*
X49184Y-49704D01*
X49184Y-49704D02*
X49137Y-49738D01*
X49137Y-49738D02*
X49084Y-49761D01*
X49084Y-49761D02*
X49028Y-49773D01*
X49028Y-49773D02*
X48972Y-49773D01*
X48972Y-49773D02*
X48916Y-49761D01*
X48916Y-49761D02*
X48863Y-49738D01*
X48863Y-49738D02*
X48816Y-49704D01*
X48816Y-49704D02*
X48778Y-49661D01*
X48778Y-49661D02*
X48749Y-49611D01*
X48749Y-49611D02*
X48732Y-49557D01*
X48732Y-49557D02*
X48725Y-49500D01*
X48725Y-49500D02*
X48732Y-49443D01*
X48732Y-49443D02*
X48749Y-49389D01*
X48749Y-49389D02*
X48778Y-49339D01*
X48778Y-49339D02*
X48816Y-49296D01*
X48816Y-49296D02*
X48863Y-49262D01*
X48863Y-49262D02*
X48916Y-49239D01*
X48916Y-49239D02*
X48972Y-49227D01*
X48972Y-49227D02*
X49028Y-49227D01*
X49028Y-49227D02*
X49084Y-49239D01*
X49084Y-49239D02*
X49137Y-49262D01*
X49137Y-49262D02*
X49184Y-49296D01*
X49184Y-49296D02*
X49222Y-49339D01*
X49222Y-49339D02*
X49251Y-49389D01*
X49251Y-49389D02*
X49268Y-49443D01*
X49268Y-49443D02*
X49275Y-49500D01*
X50275Y-49500D02*
X50268Y-49557D01*
X50268Y-49557D02*
X50251Y-49611D01*
X50251Y-49611D02*
X50222Y-49661D01*
X50222Y-49661D02*
X50184Y-49704D01*
X50184Y-49704D02*
X50137Y-49738D01*
X50137Y-49738D02*
X50084Y-49761D01*
X50084Y-49761D02*
X50028Y-49773D01*
X50028Y-49773D02*
X49972Y-49773D01*
X49972Y-49773D02*
X49916Y-49761D01*
X49916Y-49761D02*
X49863Y-49738D01*
X49863Y-49738D02*
X49816Y-49704D01*
X49816Y-49704D02*
X49778Y-49661D01*
X49778Y-49661D02*
X49749Y-49611D01*
X49749Y-49611D02*
X49732Y-49557D01*
X49732Y-49557D02*
X49725Y-49500D01*
X49725Y-49500D02*
X49732Y-49443D01*
X49732Y-49443D02*
X49749Y-49389D01*
X49749Y-49389D02*
X49778Y-49339D01*
X49778Y-49339D02*
X49816Y-49296D01*
X49816Y-49296D02*
X49863Y-49262D01*
X49863Y-49262D02*
X49916Y-49239D01*
X49916Y-49239D02*
X49972Y-49227D01*
X49972Y-49227D02*
X50028Y-49227D01*
X50028Y-49227D02*
X50084Y-49239D01*
X50084Y-49239D02*
X50137Y-49262D01*
X50137Y-49262D02*
X50184Y-49296D01*
X50184Y-49296D02*
X50222Y-49339D01*
X50222Y-49339D02*
X50251Y-49389D01*
X50251Y-49389D02*
X50268Y-49443D01*
X50268Y-49443D02*
X50275Y-49500D01*
X51275Y-49500D02*
X51268Y-49557D01*
X51268Y-49557D02*
X51251Y-49611D01*
X51251Y-49611D02*
X51222Y-49661D01*
X51222Y-49661D02*
X51184Y-49704D01*
X51184Y-49704D02*
X51137Y-49738D01*
X51137Y-49738D02*
X51084Y-49761D01*
X51084Y-49761D02*
X51028Y-49773D01*
X51028Y-49773D02*
X50972Y-49773D01*
X50972Y-49773D02*
X50916Y-49761D01*
X50916Y-49761D02*
X50863Y-49738D01*
X50863Y-49738D02*
X50816Y-49704D01*
X50816Y-49704D02*
X50778Y-49661D01*
X50778Y-49661D02*
X50749Y-49611D01*
X50749Y-49611D02*
X50732Y-49557D01*
X50732Y-49557D02*
X50725Y-49500D01*
X50725Y-49500D02*
X50732Y-49443D01*
X50732Y-49443D02*
X50749Y-49389D01*
X50749Y-49389D02*
X50778Y-49339D01*
X50778Y-49339D02*
X50816Y-49296D01*
X50816Y-49296D02*
X50863Y-49262D01*
X50863Y-49262D02*
X50916Y-49239D01*
X50916Y-49239D02*
X50972Y-49227D01*
X50972Y-49227D02*
X51028Y-49227D01*
X51028Y-49227D02*
X51084Y-49239D01*
X51084Y-49239D02*
X51137Y-49262D01*
X51137Y-49262D02*
X51184Y-49296D01*
X51184Y-49296D02*
X51222Y-49339D01*
X51222Y-49339D02*
X51251Y-49389D01*
X51251Y-49389D02*
X51268Y-49443D01*
X51268Y-49443D02*
X51275Y-49500D01*
X52275Y-49500D02*
X52268Y-49557D01*
X52268Y-49557D02*
X52251Y-49611D01*
X52251Y-49611D02*
X52222Y-49661D01*
X52222Y-49661D02*
X52184Y-49704D01*
X52184Y-49704D02*
X52137Y-49738D01*
X52137Y-49738D02*
X52084Y-49761D01*
X52084Y-49761D02*
X52028Y-49773D01*
X52028Y-49773D02*
X51972Y-49773D01*
X51972Y-49773D02*
X51916Y-49761D01*
X51916Y-49761D02*
X51863Y-49738D01*
X51863Y-49738D02*
X51816Y-49704D01*
X51816Y-49704D02*
X51778Y-49661D01*
X51778Y-49661D02*
X51749Y-49611D01*
X51749Y-49611D02*
X51732Y-49557D01*
X51732Y-49557D02*
X51725Y-49500D01*
X51725Y-49500D02*
X51732Y-49443D01*
X51732Y-49443D02*
X51749Y-49389D01*
X51749Y-49389D02*
X51778Y-49339D01*
X51778Y-49339D02*
X51816Y-49296D01*
X51816Y-49296D02*
X51863Y-49262D01*
X51863Y-49262D02*
X51916Y-49239D01*
X51916Y-49239D02*
X51972Y-49227D01*
X51972Y-49227D02*
X52028Y-49227D01*
X52028Y-49227D02*
X52084Y-49239D01*
X52084Y-49239D02*
X52137Y-49262D01*
X52137Y-49262D02*
X52184Y-49296D01*
X52184Y-49296D02*
X52222Y-49339D01*
X52222Y-49339D02*
X52251Y-49389D01*
X52251Y-49389D02*
X52268Y-49443D01*
X52268Y-49443D02*
X52275Y-49500D01*
X53275Y-49500D02*
X53268Y-49557D01*
X53268Y-49557D02*
X53251Y-49611D01*
X53251Y-49611D02*
X53222Y-49661D01*
X53222Y-49661D02*
X53184Y-49704D01*
X53184Y-49704D02*
X53137Y-49738D01*
X53137Y-49738D02*
X53084Y-49761D01*
X53084Y-49761D02*
X53028Y-49773D01*
X53028Y-49773D02*
X52972Y-49773D01*
X52972Y-49773D02*
X52916Y-49761D01*
X52916Y-49761D02*
X52863Y-49738D01*
X52863Y-49738D02*
X52816Y-49704D01*
X52816Y-49704D02*
X52778Y-49661D01*
X52778Y-49661D02*
X52749Y-49611D01*
X52749Y-49611D02*
X52732Y-49557D01*
X52732Y-49557D02*
X52725Y-49500D01*
X52725Y-49500D02*
X52732Y-49443D01*
X52732Y-49443D02*
X52749Y-49389D01*
X52749Y-49389D02*
X52778Y-49339D01*
X52778Y-49339D02*
X52816Y-49296D01*
X52816Y-49296D02*
X52863Y-49262D01*
X52863Y-49262D02*
X52916Y-49239D01*
X52916Y-49239D02*
X52972Y-49227D01*
X52972Y-49227D02*
X53028Y-49227D01*
X53028Y-49227D02*
X53084Y-49239D01*
X53084Y-49239D02*
X53137Y-49262D01*
X53137Y-49262D02*
X53184Y-49296D01*
X53184Y-49296D02*
X53222Y-49339D01*
X53222Y-49339D02*
X53251Y-49389D01*
X53251Y-49389D02*
X53268Y-49443D01*
X53268Y-49443D02*
X53275Y-49500D01*
X66300Y-40550D02*
X65700Y-40550D01*
X65700Y-40550D02*
X65700Y-39950D01*
X65700Y-39950D02*
X66300Y-39950D01*
X66300Y-39950D02*
X66300Y-40550D01*
X65300Y-40250D02*
X65293Y-40312D01*
X65293Y-40312D02*
X65274Y-40372D01*
X65274Y-40372D02*
X65242Y-40426D01*
X65242Y-40426D02*
X65200Y-40472D01*
X65200Y-40472D02*
X65150Y-40509D01*
X65150Y-40509D02*
X65092Y-40535D01*
X65092Y-40535D02*
X65031Y-40548D01*
X65031Y-40548D02*
X64969Y-40548D01*
X64969Y-40548D02*
X64908Y-40535D01*
X64908Y-40535D02*
X64850Y-40509D01*
X64850Y-40509D02*
X64800Y-40472D01*
X64800Y-40472D02*
X64758Y-40426D01*
X64758Y-40426D02*
X64726Y-40372D01*
X64726Y-40372D02*
X64707Y-40312D01*
X64707Y-40312D02*
X64700Y-40250D01*
X64700Y-40250D02*
X64707Y-40188D01*
X64707Y-40188D02*
X64726Y-40128D01*
X64726Y-40128D02*
X64758Y-40074D01*
X64758Y-40074D02*
X64800Y-40028D01*
X64800Y-40028D02*
X64850Y-39991D01*
X64850Y-39991D02*
X64908Y-39965D01*
X64908Y-39965D02*
X64969Y-39952D01*
X64969Y-39952D02*
X65031Y-39952D01*
X65031Y-39952D02*
X65092Y-39965D01*
X65092Y-39965D02*
X65150Y-39991D01*
X65150Y-39991D02*
X65200Y-40028D01*
X65200Y-40028D02*
X65242Y-40074D01*
X65242Y-40074D02*
X65274Y-40128D01*
X65274Y-40128D02*
X65293Y-40188D01*
X65293Y-40188D02*
X65300Y-40250D01*
X66300Y-39250D02*
X66293Y-39312D01*
X66293Y-39312D02*
X66274Y-39372D01*
X66274Y-39372D02*
X66242Y-39426D01*
X66242Y-39426D02*
X66200Y-39472D01*
X66200Y-39472D02*
X66150Y-39509D01*
X66150Y-39509D02*
X66092Y-39535D01*
X66092Y-39535D02*
X66031Y-39548D01*
X66031Y-39548D02*
X65969Y-39548D01*
X65969Y-39548D02*
X65908Y-39535D01*
X65908Y-39535D02*
X65850Y-39509D01*
X65850Y-39509D02*
X65800Y-39472D01*
X65800Y-39472D02*
X65758Y-39426D01*
X65758Y-39426D02*
X65726Y-39372D01*
X65726Y-39372D02*
X65707Y-39312D01*
X65707Y-39312D02*
X65700Y-39250D01*
X65700Y-39250D02*
X65707Y-39188D01*
X65707Y-39188D02*
X65726Y-39128D01*
X65726Y-39128D02*
X65758Y-39074D01*
X65758Y-39074D02*
X65800Y-39028D01*
X65800Y-39028D02*
X65850Y-38991D01*
X65850Y-38991D02*
X65908Y-38965D01*
X65908Y-38965D02*
X65969Y-38952D01*
X65969Y-38952D02*
X66031Y-38952D01*
X66031Y-38952D02*
X66092Y-38965D01*
X66092Y-38965D02*
X66150Y-38991D01*
X66150Y-38991D02*
X66200Y-39028D01*
X66200Y-39028D02*
X66242Y-39074D01*
X66242Y-39074D02*
X66274Y-39128D01*
X66274Y-39128D02*
X66293Y-39188D01*
X66293Y-39188D02*
X66300Y-39250D01*
X65300Y-39250D02*
X65293Y-39312D01*
X65293Y-39312D02*
X65274Y-39372D01*
X65274Y-39372D02*
X65242Y-39426D01*
X65242Y-39426D02*
X65200Y-39472D01*
X65200Y-39472D02*
X65150Y-39509D01*
X65150Y-39509D02*
X65092Y-39535D01*
X65092Y-39535D02*
X65031Y-39548D01*
X65031Y-39548D02*
X64969Y-39548D01*
X64969Y-39548D02*
X64908Y-39535D01*
X64908Y-39535D02*
X64850Y-39509D01*
X64850Y-39509D02*
X64800Y-39472D01*
X64800Y-39472D02*
X64758Y-39426D01*
X64758Y-39426D02*
X64726Y-39372D01*
X64726Y-39372D02*
X64707Y-39312D01*
X64707Y-39312D02*
X64700Y-39250D01*
X64700Y-39250D02*
X64707Y-39188D01*
X64707Y-39188D02*
X64726Y-39128D01*
X64726Y-39128D02*
X64758Y-39074D01*
X64758Y-39074D02*
X64800Y-39028D01*
X64800Y-39028D02*
X64850Y-38991D01*
X64850Y-38991D02*
X64908Y-38965D01*
X64908Y-38965D02*
X64969Y-38952D01*
X64969Y-38952D02*
X65031Y-38952D01*
X65031Y-38952D02*
X65092Y-38965D01*
X65092Y-38965D02*
X65150Y-38991D01*
X65150Y-38991D02*
X65200Y-39028D01*
X65200Y-39028D02*
X65242Y-39074D01*
X65242Y-39074D02*
X65274Y-39128D01*
X65274Y-39128D02*
X65293Y-39188D01*
X65293Y-39188D02*
X65300Y-39250D01*
X66300Y-36800D02*
X65700Y-36800D01*
X65700Y-36800D02*
X65700Y-36200D01*
X65700Y-36200D02*
X66300Y-36200D01*
X66300Y-36200D02*
X66300Y-36800D01*
X65300Y-36500D02*
X65293Y-36562D01*
X65293Y-36562D02*
X65274Y-36622D01*
X65274Y-36622D02*
X65242Y-36676D01*
X65242Y-36676D02*
X65200Y-36722D01*
X65200Y-36722D02*
X65150Y-36759D01*
X65150Y-36759D02*
X65092Y-36785D01*
X65092Y-36785D02*
X65031Y-36798D01*
X65031Y-36798D02*
X64969Y-36798D01*
X64969Y-36798D02*
X64908Y-36785D01*
X64908Y-36785D02*
X64850Y-36759D01*
X64850Y-36759D02*
X64800Y-36722D01*
X64800Y-36722D02*
X64758Y-36676D01*
X64758Y-36676D02*
X64726Y-36622D01*
X64726Y-36622D02*
X64707Y-36562D01*
X64707Y-36562D02*
X64700Y-36500D01*
X64700Y-36500D02*
X64707Y-36438D01*
X64707Y-36438D02*
X64726Y-36378D01*
X64726Y-36378D02*
X64758Y-36324D01*
X64758Y-36324D02*
X64800Y-36278D01*
X64800Y-36278D02*
X64850Y-36241D01*
X64850Y-36241D02*
X64908Y-36215D01*
X64908Y-36215D02*
X64969Y-36202D01*
X64969Y-36202D02*
X65031Y-36202D01*
X65031Y-36202D02*
X65092Y-36215D01*
X65092Y-36215D02*
X65150Y-36241D01*
X65150Y-36241D02*
X65200Y-36278D01*
X65200Y-36278D02*
X65242Y-36324D01*
X65242Y-36324D02*
X65274Y-36378D01*
X65274Y-36378D02*
X65293Y-36438D01*
X65293Y-36438D02*
X65300Y-36500D01*
X66300Y-35500D02*
X66293Y-35562D01*
X66293Y-35562D02*
X66274Y-35622D01*
X66274Y-35622D02*
X66242Y-35676D01*
X66242Y-35676D02*
X66200Y-35722D01*
X66200Y-35722D02*
X66150Y-35759D01*
X66150Y-35759D02*
X66092Y-35785D01*
X66092Y-35785D02*
X66031Y-35798D01*
X66031Y-35798D02*
X65969Y-35798D01*
X65969Y-35798D02*
X65908Y-35785D01*
X65908Y-35785D02*
X65850Y-35759D01*
X65850Y-35759D02*
X65800Y-35722D01*
X65800Y-35722D02*
X65758Y-35676D01*
X65758Y-35676D02*
X65726Y-35622D01*
X65726Y-35622D02*
X65707Y-35562D01*
X65707Y-35562D02*
X65700Y-35500D01*
X65700Y-35500D02*
X65707Y-35438D01*
X65707Y-35438D02*
X65726Y-35378D01*
X65726Y-35378D02*
X65758Y-35324D01*
X65758Y-35324D02*
X65800Y-35278D01*
X65800Y-35278D02*
X65850Y-35241D01*
X65850Y-35241D02*
X65908Y-35215D01*
X65908Y-35215D02*
X65969Y-35202D01*
X65969Y-35202D02*
X66031Y-35202D01*
X66031Y-35202D02*
X66092Y-35215D01*
X66092Y-35215D02*
X66150Y-35241D01*
X66150Y-35241D02*
X66200Y-35278D01*
X66200Y-35278D02*
X66242Y-35324D01*
X66242Y-35324D02*
X66274Y-35378D01*
X66274Y-35378D02*
X66293Y-35438D01*
X66293Y-35438D02*
X66300Y-35500D01*
X65300Y-35500D02*
X65293Y-35562D01*
X65293Y-35562D02*
X65274Y-35622D01*
X65274Y-35622D02*
X65242Y-35676D01*
X65242Y-35676D02*
X65200Y-35722D01*
X65200Y-35722D02*
X65150Y-35759D01*
X65150Y-35759D02*
X65092Y-35785D01*
X65092Y-35785D02*
X65031Y-35798D01*
X65031Y-35798D02*
X64969Y-35798D01*
X64969Y-35798D02*
X64908Y-35785D01*
X64908Y-35785D02*
X64850Y-35759D01*
X64850Y-35759D02*
X64800Y-35722D01*
X64800Y-35722D02*
X64758Y-35676D01*
X64758Y-35676D02*
X64726Y-35622D01*
X64726Y-35622D02*
X64707Y-35562D01*
X64707Y-35562D02*
X64700Y-35500D01*
X64700Y-35500D02*
X64707Y-35438D01*
X64707Y-35438D02*
X64726Y-35378D01*
X64726Y-35378D02*
X64758Y-35324D01*
X64758Y-35324D02*
X64800Y-35278D01*
X64800Y-35278D02*
X64850Y-35241D01*
X64850Y-35241D02*
X64908Y-35215D01*
X64908Y-35215D02*
X64969Y-35202D01*
X64969Y-35202D02*
X65031Y-35202D01*
X65031Y-35202D02*
X65092Y-35215D01*
X65092Y-35215D02*
X65150Y-35241D01*
X65150Y-35241D02*
X65200Y-35278D01*
X65200Y-35278D02*
X65242Y-35324D01*
X65242Y-35324D02*
X65274Y-35378D01*
X65274Y-35378D02*
X65293Y-35438D01*
X65293Y-35438D02*
X65300Y-35500D01*
X66300Y-34500D02*
X66293Y-34562D01*
X66293Y-34562D02*
X66274Y-34622D01*
X66274Y-34622D02*
X66242Y-34676D01*
X66242Y-34676D02*
X66200Y-34722D01*
X66200Y-34722D02*
X66150Y-34759D01*
X66150Y-34759D02*
X66092Y-34785D01*
X66092Y-34785D02*
X66031Y-34798D01*
X66031Y-34798D02*
X65969Y-34798D01*
X65969Y-34798D02*
X65908Y-34785D01*
X65908Y-34785D02*
X65850Y-34759D01*
X65850Y-34759D02*
X65800Y-34722D01*
X65800Y-34722D02*
X65758Y-34676D01*
X65758Y-34676D02*
X65726Y-34622D01*
X65726Y-34622D02*
X65707Y-34562D01*
X65707Y-34562D02*
X65700Y-34500D01*
X65700Y-34500D02*
X65707Y-34438D01*
X65707Y-34438D02*
X65726Y-34378D01*
X65726Y-34378D02*
X65758Y-34324D01*
X65758Y-34324D02*
X65800Y-34278D01*
X65800Y-34278D02*
X65850Y-34241D01*
X65850Y-34241D02*
X65908Y-34215D01*
X65908Y-34215D02*
X65969Y-34202D01*
X65969Y-34202D02*
X66031Y-34202D01*
X66031Y-34202D02*
X66092Y-34215D01*
X66092Y-34215D02*
X66150Y-34241D01*
X66150Y-34241D02*
X66200Y-34278D01*
X66200Y-34278D02*
X66242Y-34324D01*
X66242Y-34324D02*
X66274Y-34378D01*
X66274Y-34378D02*
X66293Y-34438D01*
X66293Y-34438D02*
X66300Y-34500D01*
X65300Y-34500D02*
X65293Y-34562D01*
X65293Y-34562D02*
X65274Y-34622D01*
X65274Y-34622D02*
X65242Y-34676D01*
X65242Y-34676D02*
X65200Y-34722D01*
X65200Y-34722D02*
X65150Y-34759D01*
X65150Y-34759D02*
X65092Y-34785D01*
X65092Y-34785D02*
X65031Y-34798D01*
X65031Y-34798D02*
X64969Y-34798D01*
X64969Y-34798D02*
X64908Y-34785D01*
X64908Y-34785D02*
X64850Y-34759D01*
X64850Y-34759D02*
X64800Y-34722D01*
X64800Y-34722D02*
X64758Y-34676D01*
X64758Y-34676D02*
X64726Y-34622D01*
X64726Y-34622D02*
X64707Y-34562D01*
X64707Y-34562D02*
X64700Y-34500D01*
X64700Y-34500D02*
X64707Y-34438D01*
X64707Y-34438D02*
X64726Y-34378D01*
X64726Y-34378D02*
X64758Y-34324D01*
X64758Y-34324D02*
X64800Y-34278D01*
X64800Y-34278D02*
X64850Y-34241D01*
X64850Y-34241D02*
X64908Y-34215D01*
X64908Y-34215D02*
X64969Y-34202D01*
X64969Y-34202D02*
X65031Y-34202D01*
X65031Y-34202D02*
X65092Y-34215D01*
X65092Y-34215D02*
X65150Y-34241D01*
X65150Y-34241D02*
X65200Y-34278D01*
X65200Y-34278D02*
X65242Y-34324D01*
X65242Y-34324D02*
X65274Y-34378D01*
X65274Y-34378D02*
X65293Y-34438D01*
X65293Y-34438D02*
X65300Y-34500D01*
X66300Y-45800D02*
X65700Y-45800D01*
X65700Y-45800D02*
X65700Y-45200D01*
X65700Y-45200D02*
X66300Y-45200D01*
X66300Y-45200D02*
X66300Y-45800D01*
X65300Y-45500D02*
X65293Y-45562D01*
X65293Y-45562D02*
X65274Y-45622D01*
X65274Y-45622D02*
X65242Y-45676D01*
X65242Y-45676D02*
X65200Y-45722D01*
X65200Y-45722D02*
X65150Y-45759D01*
X65150Y-45759D02*
X65092Y-45785D01*
X65092Y-45785D02*
X65031Y-45798D01*
X65031Y-45798D02*
X64969Y-45798D01*
X64969Y-45798D02*
X64908Y-45785D01*
X64908Y-45785D02*
X64850Y-45759D01*
X64850Y-45759D02*
X64800Y-45722D01*
X64800Y-45722D02*
X64758Y-45676D01*
X64758Y-45676D02*
X64726Y-45622D01*
X64726Y-45622D02*
X64707Y-45562D01*
X64707Y-45562D02*
X64700Y-45500D01*
X64700Y-45500D02*
X64707Y-45438D01*
X64707Y-45438D02*
X64726Y-45378D01*
X64726Y-45378D02*
X64758Y-45324D01*
X64758Y-45324D02*
X64800Y-45278D01*
X64800Y-45278D02*
X64850Y-45241D01*
X64850Y-45241D02*
X64908Y-45215D01*
X64908Y-45215D02*
X64969Y-45202D01*
X64969Y-45202D02*
X65031Y-45202D01*
X65031Y-45202D02*
X65092Y-45215D01*
X65092Y-45215D02*
X65150Y-45241D01*
X65150Y-45241D02*
X65200Y-45278D01*
X65200Y-45278D02*
X65242Y-45324D01*
X65242Y-45324D02*
X65274Y-45378D01*
X65274Y-45378D02*
X65293Y-45438D01*
X65293Y-45438D02*
X65300Y-45500D01*
X66300Y-44500D02*
X66293Y-44562D01*
X66293Y-44562D02*
X66274Y-44622D01*
X66274Y-44622D02*
X66242Y-44676D01*
X66242Y-44676D02*
X66200Y-44722D01*
X66200Y-44722D02*
X66150Y-44759D01*
X66150Y-44759D02*
X66092Y-44785D01*
X66092Y-44785D02*
X66031Y-44798D01*
X66031Y-44798D02*
X65969Y-44798D01*
X65969Y-44798D02*
X65908Y-44785D01*
X65908Y-44785D02*
X65850Y-44759D01*
X65850Y-44759D02*
X65800Y-44722D01*
X65800Y-44722D02*
X65758Y-44676D01*
X65758Y-44676D02*
X65726Y-44622D01*
X65726Y-44622D02*
X65707Y-44562D01*
X65707Y-44562D02*
X65700Y-44500D01*
X65700Y-44500D02*
X65707Y-44438D01*
X65707Y-44438D02*
X65726Y-44378D01*
X65726Y-44378D02*
X65758Y-44324D01*
X65758Y-44324D02*
X65800Y-44278D01*
X65800Y-44278D02*
X65850Y-44241D01*
X65850Y-44241D02*
X65908Y-44215D01*
X65908Y-44215D02*
X65969Y-44202D01*
X65969Y-44202D02*
X66031Y-44202D01*
X66031Y-44202D02*
X66092Y-44215D01*
X66092Y-44215D02*
X66150Y-44241D01*
X66150Y-44241D02*
X66200Y-44278D01*
X66200Y-44278D02*
X66242Y-44324D01*
X66242Y-44324D02*
X66274Y-44378D01*
X66274Y-44378D02*
X66293Y-44438D01*
X66293Y-44438D02*
X66300Y-44500D01*
X65300Y-44500D02*
X65293Y-44562D01*
X65293Y-44562D02*
X65274Y-44622D01*
X65274Y-44622D02*
X65242Y-44676D01*
X65242Y-44676D02*
X65200Y-44722D01*
X65200Y-44722D02*
X65150Y-44759D01*
X65150Y-44759D02*
X65092Y-44785D01*
X65092Y-44785D02*
X65031Y-44798D01*
X65031Y-44798D02*
X64969Y-44798D01*
X64969Y-44798D02*
X64908Y-44785D01*
X64908Y-44785D02*
X64850Y-44759D01*
X64850Y-44759D02*
X64800Y-44722D01*
X64800Y-44722D02*
X64758Y-44676D01*
X64758Y-44676D02*
X64726Y-44622D01*
X64726Y-44622D02*
X64707Y-44562D01*
X64707Y-44562D02*
X64700Y-44500D01*
X64700Y-44500D02*
X64707Y-44438D01*
X64707Y-44438D02*
X64726Y-44378D01*
X64726Y-44378D02*
X64758Y-44324D01*
X64758Y-44324D02*
X64800Y-44278D01*
X64800Y-44278D02*
X64850Y-44241D01*
X64850Y-44241D02*
X64908Y-44215D01*
X64908Y-44215D02*
X64969Y-44202D01*
X64969Y-44202D02*
X65031Y-44202D01*
X65031Y-44202D02*
X65092Y-44215D01*
X65092Y-44215D02*
X65150Y-44241D01*
X65150Y-44241D02*
X65200Y-44278D01*
X65200Y-44278D02*
X65242Y-44324D01*
X65242Y-44324D02*
X65274Y-44378D01*
X65274Y-44378D02*
X65293Y-44438D01*
X65293Y-44438D02*
X65300Y-44500D01*
G54D34*
X58524Y-31689D02*
X58578Y-31840D01*
X58578Y-31840D02*
X58685Y-31840D01*
X58685Y-31840D02*
X58738Y-31765D01*
X58738Y-31765D02*
X58738Y-31159D01*
X58631Y-31159D02*
X58845Y-31159D01*
X59226Y-31840D02*
X59440Y-31840D01*
X59333Y-31840D02*
X59333Y-31159D01*
X59333Y-31235D02*
X59226Y-31386D01*
X50024Y-31689D02*
X50078Y-31840D01*
X50078Y-31840D02*
X50185Y-31840D01*
X50185Y-31840D02*
X50238Y-31765D01*
X50238Y-31765D02*
X50238Y-31159D01*
X50131Y-31159D02*
X50345Y-31159D01*
X50619Y-31159D02*
X50994Y-31159D01*
X50994Y-31159D02*
X50994Y-31235D01*
X50994Y-31235D02*
X50780Y-31462D01*
X50780Y-31462D02*
X50940Y-31462D01*
X50940Y-31462D02*
X50994Y-31538D01*
X50994Y-31538D02*
X50994Y-31765D01*
X50994Y-31765D02*
X50940Y-31840D01*
X50940Y-31840D02*
X50673Y-31840D01*
X50673Y-31840D02*
X50619Y-31765D01*
X58774Y-48689D02*
X58828Y-48840D01*
X58828Y-48840D02*
X58935Y-48840D01*
X58935Y-48840D02*
X58988Y-48765D01*
X58988Y-48765D02*
X58988Y-48159D01*
X58881Y-48159D02*
X59095Y-48159D01*
X59744Y-48840D02*
X59369Y-48840D01*
X59369Y-48840D02*
X59369Y-48613D01*
X59369Y-48613D02*
X59423Y-48538D01*
X59423Y-48538D02*
X59690Y-48538D01*
X59690Y-48538D02*
X59744Y-48462D01*
X59744Y-48462D02*
X59744Y-48235D01*
X59744Y-48235D02*
X59690Y-48159D01*
X59690Y-48159D02*
X59423Y-48159D01*
X59423Y-48159D02*
X59369Y-48235D01*
X52024Y-48689D02*
X52078Y-48840D01*
X52078Y-48840D02*
X52185Y-48840D01*
X52185Y-48840D02*
X52238Y-48765D01*
X52238Y-48765D02*
X52238Y-48159D01*
X52131Y-48159D02*
X52345Y-48159D01*
X52887Y-48840D02*
X52887Y-48159D01*
X52887Y-48159D02*
X52619Y-48689D01*
X52619Y-48689D02*
X52994Y-48689D01*
G54D35*
X65112Y-42166D02*
X65200Y-42116D01*
X65200Y-42116D02*
X65200Y-42016D01*
X65200Y-42016D02*
X65156Y-41966D01*
X65156Y-41966D02*
X64800Y-41966D01*
X64800Y-42066D02*
X64800Y-41866D01*
X64845Y-41292D02*
X64800Y-41342D01*
X64800Y-41342D02*
X64800Y-41592D01*
X64800Y-41592D02*
X64845Y-41642D01*
X64845Y-41642D02*
X65156Y-41642D01*
X65156Y-41642D02*
X65200Y-41592D01*
X65200Y-41592D02*
X65200Y-41342D01*
X65200Y-41342D02*
X65156Y-41292D01*
X65156Y-41292D02*
X65023Y-41292D01*
X65023Y-41292D02*
X64978Y-41342D01*
X64978Y-41342D02*
X64978Y-41592D01*
X64978Y-41592D02*
X65023Y-41642D01*
X64112Y-35916D02*
X64200Y-35866D01*
X64200Y-35866D02*
X64200Y-35766D01*
X64200Y-35766D02*
X64156Y-35716D01*
X64156Y-35716D02*
X63800Y-35716D01*
X63800Y-35816D02*
X63800Y-35616D01*
X64112Y-35392D02*
X64156Y-35392D01*
X64156Y-35392D02*
X64200Y-35342D01*
X64200Y-35342D02*
X64200Y-35092D01*
X64200Y-35092D02*
X64156Y-35042D01*
X64156Y-35042D02*
X64023Y-35042D01*
X64023Y-35042D02*
X63934Y-35142D01*
X63934Y-35142D02*
X63934Y-35392D01*
X63934Y-35392D02*
X63800Y-35392D01*
X63800Y-35392D02*
X63800Y-35042D01*
G54D31*
X54827Y-47125D02*
X54827Y-46875D01*
X54827Y-46875D02*
X55014Y-46875D01*
X55014Y-46875D02*
X55046Y-46903D01*
X55046Y-46903D02*
X55046Y-46987D01*
X55046Y-46987D02*
X55014Y-47014D01*
X55014Y-47014D02*
X54827Y-47014D01*
X54921Y-47014D02*
X55046Y-47125D01*
X55216Y-47125D02*
X55341Y-47125D01*
X55279Y-47125D02*
X55279Y-46875D01*
X55279Y-46903D02*
X55216Y-46959D01*
X55481Y-47070D02*
X55481Y-47098D01*
X55481Y-47098D02*
X55512Y-47125D01*
X55512Y-47125D02*
X55668Y-47125D01*
X55668Y-47125D02*
X55700Y-47098D01*
X55700Y-47098D02*
X55700Y-47014D01*
X55700Y-47014D02*
X55637Y-46959D01*
X55637Y-46959D02*
X55481Y-46959D01*
X55481Y-46959D02*
X55481Y-46875D01*
X55481Y-46875D02*
X55700Y-46875D01*
X57327Y-46125D02*
X57327Y-45875D01*
X57327Y-45875D02*
X57514Y-45875D01*
X57514Y-45875D02*
X57546Y-45903D01*
X57546Y-45903D02*
X57546Y-45987D01*
X57546Y-45987D02*
X57514Y-46014D01*
X57514Y-46014D02*
X57327Y-46014D01*
X57421Y-46014D02*
X57546Y-46125D01*
X57716Y-46125D02*
X57841Y-46125D01*
X57779Y-46125D02*
X57779Y-45875D01*
X57779Y-45903D02*
X57716Y-45959D01*
X57981Y-45875D02*
X58200Y-45875D01*
X58200Y-45875D02*
X58200Y-45903D01*
X58200Y-45903D02*
X58075Y-45987D01*
X58075Y-45987D02*
X58168Y-45987D01*
X58168Y-45987D02*
X58200Y-46014D01*
X58200Y-46014D02*
X58200Y-46098D01*
X58200Y-46098D02*
X58168Y-46125D01*
X58168Y-46125D02*
X58012Y-46125D01*
X58012Y-46125D02*
X57981Y-46098D01*
X54827Y-46125D02*
X54827Y-45875D01*
X54827Y-45875D02*
X55014Y-45875D01*
X55014Y-45875D02*
X55046Y-45903D01*
X55046Y-45903D02*
X55046Y-45987D01*
X55046Y-45987D02*
X55014Y-46014D01*
X55014Y-46014D02*
X54827Y-46014D01*
X54921Y-46014D02*
X55046Y-46125D01*
X55216Y-46125D02*
X55341Y-46125D01*
X55279Y-46125D02*
X55279Y-45875D01*
X55279Y-45903D02*
X55216Y-45959D01*
X55700Y-46125D02*
X55481Y-46125D01*
X55481Y-46125D02*
X55481Y-46042D01*
X55481Y-46042D02*
X55512Y-46014D01*
X55512Y-46014D02*
X55668Y-46014D01*
X55668Y-46014D02*
X55700Y-45987D01*
X55700Y-45987D02*
X55700Y-45903D01*
X55700Y-45903D02*
X55668Y-45875D01*
X55668Y-45875D02*
X55512Y-45875D01*
X55512Y-45875D02*
X55481Y-45903D01*
X45577Y-42125D02*
X45577Y-41875D01*
X45577Y-41875D02*
X45764Y-41875D01*
X45764Y-41875D02*
X45796Y-41903D01*
X45796Y-41903D02*
X45796Y-41987D01*
X45796Y-41987D02*
X45764Y-42014D01*
X45764Y-42014D02*
X45577Y-42014D01*
X45671Y-42014D02*
X45796Y-42125D01*
X45966Y-42125D02*
X46091Y-42125D01*
X46029Y-42125D02*
X46029Y-41875D01*
X46029Y-41903D02*
X45966Y-41959D01*
X46293Y-42125D02*
X46418Y-42125D01*
X46356Y-42125D02*
X46356Y-41875D01*
X46356Y-41903D02*
X46293Y-41959D01*
X50327Y-43125D02*
X50327Y-42875D01*
X50327Y-42875D02*
X50514Y-42875D01*
X50514Y-42875D02*
X50546Y-42903D01*
X50546Y-42903D02*
X50546Y-42987D01*
X50546Y-42987D02*
X50514Y-43014D01*
X50514Y-43014D02*
X50327Y-43014D01*
X50421Y-43014D02*
X50546Y-43125D01*
X50716Y-43125D02*
X50841Y-43125D01*
X50779Y-43125D02*
X50779Y-42875D01*
X50779Y-42903D02*
X50716Y-42959D01*
X50981Y-43125D02*
X51200Y-42875D01*
X50981Y-43098D02*
X50981Y-42903D01*
X50981Y-42903D02*
X51012Y-42875D01*
X51012Y-42875D02*
X51168Y-42875D01*
X51168Y-42875D02*
X51200Y-42903D01*
X51200Y-42903D02*
X51200Y-43098D01*
X51200Y-43098D02*
X51168Y-43125D01*
X51168Y-43125D02*
X51012Y-43125D01*
X51012Y-43125D02*
X50981Y-43098D01*
X57740Y-44125D02*
X57740Y-43875D01*
X57740Y-43875D02*
X57927Y-43875D01*
X57927Y-43875D02*
X57959Y-43903D01*
X57959Y-43903D02*
X57959Y-43987D01*
X57959Y-43987D02*
X57927Y-44014D01*
X57927Y-44014D02*
X57740Y-44014D01*
X57834Y-44014D02*
X57959Y-44125D01*
X58098Y-44125D02*
X58254Y-44125D01*
X58254Y-44125D02*
X58286Y-44098D01*
X58286Y-44098D02*
X58286Y-43903D01*
X58286Y-43903D02*
X58254Y-43875D01*
X58254Y-43875D02*
X58098Y-43875D01*
X58098Y-43875D02*
X58067Y-43903D01*
X58067Y-43903D02*
X58067Y-43987D01*
X58067Y-43987D02*
X58098Y-44014D01*
X58098Y-44014D02*
X58254Y-44014D01*
X58254Y-44014D02*
X58286Y-43987D01*
X43740Y-40125D02*
X43740Y-39875D01*
X43740Y-39875D02*
X43927Y-39875D01*
X43927Y-39875D02*
X43959Y-39903D01*
X43959Y-39903D02*
X43959Y-39987D01*
X43959Y-39987D02*
X43927Y-40014D01*
X43927Y-40014D02*
X43740Y-40014D01*
X43834Y-40014D02*
X43959Y-40125D01*
X44098Y-40125D02*
X44067Y-40098D01*
X44067Y-40098D02*
X44067Y-40014D01*
X44067Y-40014D02*
X44098Y-39987D01*
X44098Y-39987D02*
X44254Y-39987D01*
X44254Y-39987D02*
X44286Y-39959D01*
X44286Y-39959D02*
X44286Y-39903D01*
X44286Y-39903D02*
X44254Y-39875D01*
X44254Y-39875D02*
X44098Y-39875D01*
X44098Y-39875D02*
X44067Y-39903D01*
X44067Y-39903D02*
X44067Y-39959D01*
X44067Y-39959D02*
X44098Y-39987D01*
X44254Y-39987D02*
X44286Y-40014D01*
X44286Y-40014D02*
X44286Y-40098D01*
X44286Y-40098D02*
X44254Y-40125D01*
X44254Y-40125D02*
X44098Y-40125D01*
X50740Y-41125D02*
X50740Y-40875D01*
X50740Y-40875D02*
X50927Y-40875D01*
X50927Y-40875D02*
X50959Y-40903D01*
X50959Y-40903D02*
X50959Y-40987D01*
X50959Y-40987D02*
X50927Y-41014D01*
X50927Y-41014D02*
X50740Y-41014D01*
X50834Y-41014D02*
X50959Y-41125D01*
X51067Y-40875D02*
X51286Y-40875D01*
X51286Y-40875D02*
X51067Y-41125D01*
X57740Y-42125D02*
X57740Y-41875D01*
X57740Y-41875D02*
X57927Y-41875D01*
X57927Y-41875D02*
X57959Y-41903D01*
X57959Y-41903D02*
X57959Y-41987D01*
X57959Y-41987D02*
X57927Y-42014D01*
X57927Y-42014D02*
X57740Y-42014D01*
X57834Y-42014D02*
X57959Y-42125D01*
X58286Y-41903D02*
X58254Y-41875D01*
X58254Y-41875D02*
X58098Y-41875D01*
X58098Y-41875D02*
X58067Y-41903D01*
X58067Y-41903D02*
X58067Y-42098D01*
X58067Y-42098D02*
X58098Y-42125D01*
X58098Y-42125D02*
X58254Y-42125D01*
X58254Y-42125D02*
X58286Y-42098D01*
X58286Y-42098D02*
X58286Y-42014D01*
X58286Y-42014D02*
X58254Y-41987D01*
X58254Y-41987D02*
X58098Y-41987D01*
X58098Y-41987D02*
X58067Y-42014D01*
X42990Y-43125D02*
X42990Y-42875D01*
X42990Y-42875D02*
X43177Y-42875D01*
X43177Y-42875D02*
X43209Y-42903D01*
X43209Y-42903D02*
X43209Y-42987D01*
X43209Y-42987D02*
X43177Y-43014D01*
X43177Y-43014D02*
X42990Y-43014D01*
X43084Y-43014D02*
X43209Y-43125D01*
X43536Y-43125D02*
X43317Y-43125D01*
X43317Y-43125D02*
X43317Y-43042D01*
X43317Y-43042D02*
X43348Y-43014D01*
X43348Y-43014D02*
X43504Y-43014D01*
X43504Y-43014D02*
X43536Y-42987D01*
X43536Y-42987D02*
X43536Y-42903D01*
X43536Y-42903D02*
X43504Y-42875D01*
X43504Y-42875D02*
X43348Y-42875D01*
X43348Y-42875D02*
X43317Y-42903D01*
X40490Y-42625D02*
X40490Y-42375D01*
X40490Y-42375D02*
X40677Y-42375D01*
X40677Y-42375D02*
X40709Y-42403D01*
X40709Y-42403D02*
X40709Y-42487D01*
X40709Y-42487D02*
X40677Y-42514D01*
X40677Y-42514D02*
X40490Y-42514D01*
X40584Y-42514D02*
X40709Y-42625D01*
X40879Y-42625D02*
X41004Y-42625D01*
X40942Y-42625D02*
X40942Y-42375D01*
X40942Y-42403D02*
X40879Y-42459D01*
X59827Y-47625D02*
X59827Y-47375D01*
X59827Y-47375D02*
X60014Y-47375D01*
X60014Y-47375D02*
X60046Y-47403D01*
X60046Y-47403D02*
X60046Y-47487D01*
X60046Y-47487D02*
X60014Y-47514D01*
X60014Y-47514D02*
X59827Y-47514D01*
X59921Y-47514D02*
X60046Y-47625D01*
X60216Y-47625D02*
X60341Y-47625D01*
X60279Y-47625D02*
X60279Y-47375D01*
X60279Y-47403D02*
X60216Y-47459D01*
X60637Y-47625D02*
X60637Y-47375D01*
X60637Y-47375D02*
X60481Y-47570D01*
X60481Y-47570D02*
X60700Y-47570D01*
X40577Y-45125D02*
X40577Y-44875D01*
X40577Y-44875D02*
X40764Y-44875D01*
X40764Y-44875D02*
X40796Y-44903D01*
X40796Y-44903D02*
X40796Y-44987D01*
X40796Y-44987D02*
X40764Y-45014D01*
X40764Y-45014D02*
X40577Y-45014D01*
X40671Y-45014D02*
X40796Y-45125D01*
X41123Y-45125D02*
X40904Y-45125D01*
X40904Y-45125D02*
X40904Y-45042D01*
X40904Y-45042D02*
X40935Y-45014D01*
X40935Y-45014D02*
X41091Y-45014D01*
X41091Y-45014D02*
X41123Y-44987D01*
X41123Y-44987D02*
X41123Y-44903D01*
X41123Y-44903D02*
X41091Y-44875D01*
X41091Y-44875D02*
X40935Y-44875D01*
X40935Y-44875D02*
X40904Y-44903D01*
X41231Y-44875D02*
X41450Y-44875D01*
X41450Y-44875D02*
X41450Y-44903D01*
X41450Y-44903D02*
X41325Y-44987D01*
X41325Y-44987D02*
X41418Y-44987D01*
X41418Y-44987D02*
X41450Y-45014D01*
X41450Y-45014D02*
X41450Y-45098D01*
X41450Y-45098D02*
X41418Y-45125D01*
X41418Y-45125D02*
X41262Y-45125D01*
X41262Y-45125D02*
X41231Y-45098D01*
X43327Y-45125D02*
X43327Y-44875D01*
X43327Y-44875D02*
X43514Y-44875D01*
X43514Y-44875D02*
X43546Y-44903D01*
X43546Y-44903D02*
X43546Y-44987D01*
X43546Y-44987D02*
X43514Y-45014D01*
X43514Y-45014D02*
X43327Y-45014D01*
X43421Y-45014D02*
X43546Y-45125D01*
X43873Y-45125D02*
X43654Y-45125D01*
X43654Y-45125D02*
X43654Y-45042D01*
X43654Y-45042D02*
X43685Y-45014D01*
X43685Y-45014D02*
X43841Y-45014D01*
X43841Y-45014D02*
X43873Y-44987D01*
X43873Y-44987D02*
X43873Y-44903D01*
X43873Y-44903D02*
X43841Y-44875D01*
X43841Y-44875D02*
X43685Y-44875D01*
X43685Y-44875D02*
X43654Y-44903D01*
X44200Y-45125D02*
X43981Y-45125D01*
X43981Y-45125D02*
X43981Y-45042D01*
X43981Y-45042D02*
X44012Y-45014D01*
X44012Y-45014D02*
X44168Y-45014D01*
X44168Y-45014D02*
X44200Y-44987D01*
X44200Y-44987D02*
X44200Y-44903D01*
X44200Y-44903D02*
X44168Y-44875D01*
X44168Y-44875D02*
X44012Y-44875D01*
X44012Y-44875D02*
X43981Y-44903D01*
X43327Y-44125D02*
X43327Y-43875D01*
X43327Y-43875D02*
X43514Y-43875D01*
X43514Y-43875D02*
X43546Y-43903D01*
X43546Y-43903D02*
X43546Y-43987D01*
X43546Y-43987D02*
X43514Y-44014D01*
X43514Y-44014D02*
X43327Y-44014D01*
X43421Y-44014D02*
X43546Y-44125D01*
X43873Y-44125D02*
X43654Y-44125D01*
X43654Y-44125D02*
X43654Y-44042D01*
X43654Y-44042D02*
X43685Y-44014D01*
X43685Y-44014D02*
X43841Y-44014D01*
X43841Y-44014D02*
X43873Y-43987D01*
X43873Y-43987D02*
X43873Y-43903D01*
X43873Y-43903D02*
X43841Y-43875D01*
X43841Y-43875D02*
X43685Y-43875D01*
X43685Y-43875D02*
X43654Y-43903D01*
X44043Y-44125D02*
X44168Y-44125D01*
X44106Y-44125D02*
X44106Y-43875D01*
X44106Y-43903D02*
X44043Y-43959D01*
X40577Y-44125D02*
X40577Y-43875D01*
X40577Y-43875D02*
X40764Y-43875D01*
X40764Y-43875D02*
X40796Y-43903D01*
X40796Y-43903D02*
X40796Y-43987D01*
X40796Y-43987D02*
X40764Y-44014D01*
X40764Y-44014D02*
X40577Y-44014D01*
X40671Y-44014D02*
X40796Y-44125D01*
X41123Y-44125D02*
X40904Y-44125D01*
X40904Y-44125D02*
X40904Y-44042D01*
X40904Y-44042D02*
X40935Y-44014D01*
X40935Y-44014D02*
X41091Y-44014D01*
X41091Y-44014D02*
X41123Y-43987D01*
X41123Y-43987D02*
X41123Y-43903D01*
X41123Y-43903D02*
X41091Y-43875D01*
X41091Y-43875D02*
X40935Y-43875D01*
X40935Y-43875D02*
X40904Y-43903D01*
X41231Y-44125D02*
X41450Y-43875D01*
X41231Y-44098D02*
X41231Y-43903D01*
X41231Y-43903D02*
X41262Y-43875D01*
X41262Y-43875D02*
X41418Y-43875D01*
X41418Y-43875D02*
X41450Y-43903D01*
X41450Y-43903D02*
X41450Y-44098D01*
X41450Y-44098D02*
X41418Y-44125D01*
X41418Y-44125D02*
X41262Y-44125D01*
X41262Y-44125D02*
X41231Y-44098D01*
X47577Y-46125D02*
X47577Y-45875D01*
X47577Y-45875D02*
X47764Y-45875D01*
X47764Y-45875D02*
X47796Y-45903D01*
X47796Y-45903D02*
X47796Y-45987D01*
X47796Y-45987D02*
X47764Y-46014D01*
X47764Y-46014D02*
X47577Y-46014D01*
X47671Y-46014D02*
X47796Y-46125D01*
X47966Y-46125D02*
X48091Y-46125D01*
X48029Y-46125D02*
X48029Y-45875D01*
X48029Y-45903D02*
X47966Y-45959D01*
X48262Y-46125D02*
X48418Y-46125D01*
X48418Y-46125D02*
X48450Y-46098D01*
X48450Y-46098D02*
X48450Y-45903D01*
X48450Y-45903D02*
X48418Y-45875D01*
X48418Y-45875D02*
X48262Y-45875D01*
X48262Y-45875D02*
X48231Y-45903D01*
X48231Y-45903D02*
X48231Y-45987D01*
X48231Y-45987D02*
X48262Y-46014D01*
X48262Y-46014D02*
X48418Y-46014D01*
X48418Y-46014D02*
X48450Y-45987D01*
X52827Y-46375D02*
X52827Y-46125D01*
X52827Y-46125D02*
X53014Y-46125D01*
X53014Y-46125D02*
X53046Y-46153D01*
X53046Y-46153D02*
X53046Y-46237D01*
X53046Y-46237D02*
X53014Y-46264D01*
X53014Y-46264D02*
X52827Y-46264D01*
X52921Y-46264D02*
X53046Y-46375D01*
X53216Y-46375D02*
X53341Y-46375D01*
X53279Y-46375D02*
X53279Y-46125D01*
X53279Y-46153D02*
X53216Y-46209D01*
X53512Y-46375D02*
X53481Y-46348D01*
X53481Y-46348D02*
X53481Y-46264D01*
X53481Y-46264D02*
X53512Y-46237D01*
X53512Y-46237D02*
X53668Y-46237D01*
X53668Y-46237D02*
X53700Y-46209D01*
X53700Y-46209D02*
X53700Y-46153D01*
X53700Y-46153D02*
X53668Y-46125D01*
X53668Y-46125D02*
X53512Y-46125D01*
X53512Y-46125D02*
X53481Y-46153D01*
X53481Y-46153D02*
X53481Y-46209D01*
X53481Y-46209D02*
X53512Y-46237D01*
X53668Y-46237D02*
X53700Y-46264D01*
X53700Y-46264D02*
X53700Y-46348D01*
X53700Y-46348D02*
X53668Y-46375D01*
X53668Y-46375D02*
X53512Y-46375D01*
X50327Y-45125D02*
X50327Y-44875D01*
X50327Y-44875D02*
X50514Y-44875D01*
X50514Y-44875D02*
X50546Y-44903D01*
X50546Y-44903D02*
X50546Y-44987D01*
X50546Y-44987D02*
X50514Y-45014D01*
X50514Y-45014D02*
X50327Y-45014D01*
X50421Y-45014D02*
X50546Y-45125D01*
X50716Y-45125D02*
X50841Y-45125D01*
X50779Y-45125D02*
X50779Y-44875D01*
X50779Y-44903D02*
X50716Y-44959D01*
X50981Y-44875D02*
X51200Y-44875D01*
X51200Y-44875D02*
X50981Y-45125D01*
X47577Y-45125D02*
X47577Y-44875D01*
X47577Y-44875D02*
X47764Y-44875D01*
X47764Y-44875D02*
X47796Y-44903D01*
X47796Y-44903D02*
X47796Y-44987D01*
X47796Y-44987D02*
X47764Y-45014D01*
X47764Y-45014D02*
X47577Y-45014D01*
X47671Y-45014D02*
X47796Y-45125D01*
X47966Y-45125D02*
X48091Y-45125D01*
X48029Y-45125D02*
X48029Y-44875D01*
X48029Y-44903D02*
X47966Y-44959D01*
X48450Y-44903D02*
X48418Y-44875D01*
X48418Y-44875D02*
X48262Y-44875D01*
X48262Y-44875D02*
X48231Y-44903D01*
X48231Y-44903D02*
X48231Y-45098D01*
X48231Y-45098D02*
X48262Y-45125D01*
X48262Y-45125D02*
X48418Y-45125D01*
X48418Y-45125D02*
X48450Y-45098D01*
X48450Y-45098D02*
X48450Y-45014D01*
X48450Y-45014D02*
X48418Y-44987D01*
X48418Y-44987D02*
X48262Y-44987D01*
X48262Y-44987D02*
X48231Y-45014D01*
X41098Y-48041D02*
X41125Y-48073D01*
X41125Y-48073D02*
X41125Y-48229D01*
X41125Y-48229D02*
X41098Y-48260D01*
X41098Y-48260D02*
X40903Y-48260D01*
X40903Y-48260D02*
X40875Y-48229D01*
X40875Y-48229D02*
X40875Y-48073D01*
X40875Y-48073D02*
X40903Y-48041D01*
X40875Y-47933D02*
X40875Y-47714D01*
X40875Y-47714D02*
X41125Y-47933D01*
X43959Y-43348D02*
X43927Y-43375D01*
X43927Y-43375D02*
X43771Y-43375D01*
X43771Y-43375D02*
X43740Y-43348D01*
X43740Y-43348D02*
X43740Y-43153D01*
X43740Y-43153D02*
X43771Y-43125D01*
X43771Y-43125D02*
X43927Y-43125D01*
X43927Y-43125D02*
X43959Y-43153D01*
X44286Y-43153D02*
X44254Y-43125D01*
X44254Y-43125D02*
X44098Y-43125D01*
X44098Y-43125D02*
X44067Y-43153D01*
X44067Y-43153D02*
X44067Y-43348D01*
X44067Y-43348D02*
X44098Y-43375D01*
X44098Y-43375D02*
X44254Y-43375D01*
X44254Y-43375D02*
X44286Y-43348D01*
X44286Y-43348D02*
X44286Y-43264D01*
X44286Y-43264D02*
X44254Y-43237D01*
X44254Y-43237D02*
X44098Y-43237D01*
X44098Y-43237D02*
X44067Y-43264D01*
X51959Y-44098D02*
X51927Y-44125D01*
X51927Y-44125D02*
X51771Y-44125D01*
X51771Y-44125D02*
X51740Y-44098D01*
X51740Y-44098D02*
X51740Y-43903D01*
X51740Y-43903D02*
X51771Y-43875D01*
X51771Y-43875D02*
X51927Y-43875D01*
X51927Y-43875D02*
X51959Y-43903D01*
X52067Y-44070D02*
X52067Y-44098D01*
X52067Y-44098D02*
X52098Y-44125D01*
X52098Y-44125D02*
X52254Y-44125D01*
X52254Y-44125D02*
X52286Y-44098D01*
X52286Y-44098D02*
X52286Y-44014D01*
X52286Y-44014D02*
X52223Y-43959D01*
X52223Y-43959D02*
X52067Y-43959D01*
X52067Y-43959D02*
X52067Y-43875D01*
X52067Y-43875D02*
X52286Y-43875D01*
X57959Y-45098D02*
X57927Y-45125D01*
X57927Y-45125D02*
X57771Y-45125D01*
X57771Y-45125D02*
X57740Y-45098D01*
X57740Y-45098D02*
X57740Y-44903D01*
X57740Y-44903D02*
X57771Y-44875D01*
X57771Y-44875D02*
X57927Y-44875D01*
X57927Y-44875D02*
X57959Y-44903D01*
X58223Y-45125D02*
X58223Y-44875D01*
X58223Y-44875D02*
X58067Y-45070D01*
X58067Y-45070D02*
X58286Y-45070D01*
G54D33*
X52425Y-33856D02*
X52075Y-33856D01*
X52075Y-33856D02*
X52075Y-33593D01*
X52075Y-33593D02*
X52114Y-33549D01*
X52114Y-33549D02*
X52231Y-33549D01*
X52231Y-33549D02*
X52270Y-33593D01*
X52270Y-33593D02*
X52270Y-33856D01*
X52270Y-33724D02*
X52425Y-33549D01*
X52425Y-33189D02*
X52075Y-33189D01*
X52075Y-33189D02*
X52348Y-33408D01*
X52348Y-33408D02*
X52348Y-33101D01*
X45425Y-33106D02*
X45075Y-33106D01*
X45075Y-33106D02*
X45075Y-32843D01*
X45075Y-32843D02*
X45114Y-32799D01*
X45114Y-32799D02*
X45231Y-32799D01*
X45231Y-32799D02*
X45270Y-32843D01*
X45270Y-32843D02*
X45270Y-33106D01*
X45270Y-32974D02*
X45425Y-32799D01*
X45348Y-32658D02*
X45387Y-32658D01*
X45387Y-32658D02*
X45425Y-32614D01*
X45425Y-32614D02*
X45425Y-32395D01*
X45425Y-32395D02*
X45387Y-32351D01*
X45387Y-32351D02*
X45270Y-32351D01*
X45270Y-32351D02*
X45192Y-32439D01*
X45192Y-32439D02*
X45192Y-32658D01*
X45192Y-32658D02*
X45075Y-32658D01*
X45075Y-32658D02*
X45075Y-32351D01*
X59425Y-35356D02*
X59075Y-35356D01*
X59075Y-35356D02*
X59075Y-35093D01*
X59075Y-35093D02*
X59114Y-35049D01*
X59114Y-35049D02*
X59231Y-35049D01*
X59231Y-35049D02*
X59270Y-35093D01*
X59270Y-35093D02*
X59270Y-35356D01*
X59270Y-35224D02*
X59425Y-35049D01*
X59075Y-34908D02*
X59075Y-34601D01*
X59075Y-34601D02*
X59114Y-34601D01*
X59114Y-34601D02*
X59231Y-34776D01*
X59231Y-34776D02*
X59231Y-34645D01*
X59231Y-34645D02*
X59270Y-34601D01*
X59270Y-34601D02*
X59387Y-34601D01*
X59387Y-34601D02*
X59425Y-34645D01*
X59425Y-34645D02*
X59425Y-34864D01*
X59425Y-34864D02*
X59387Y-34908D01*
G54D31*
X41317Y-49550D02*
X41317Y-49906D01*
X41317Y-49906D02*
X41373Y-49950D01*
X41373Y-49950D02*
X41654Y-49950D01*
X41654Y-49950D02*
X41711Y-49906D01*
X41711Y-49906D02*
X41711Y-49550D01*
X41979Y-49950D02*
X42204Y-49950D01*
X42092Y-49950D02*
X42092Y-49550D01*
X42092Y-49595D02*
X41979Y-49684D01*
G54D33*
X50558Y-39925D02*
X50558Y-39575D01*
X50558Y-39575D02*
X50614Y-39525D01*
X50614Y-39525D02*
X50895Y-39525D01*
X50895Y-39525D02*
X50952Y-39575D01*
X50952Y-39575D02*
X50952Y-39925D01*
X50952Y-39925D02*
X50895Y-39975D01*
X50895Y-39975D02*
X50614Y-39975D01*
X50614Y-39975D02*
X50558Y-39925D01*
X50839Y-39775D02*
X50952Y-39975D01*
X51512Y-39975D02*
X51118Y-39975D01*
X51118Y-39975D02*
X51118Y-39825D01*
X51118Y-39825D02*
X51174Y-39775D01*
X51174Y-39775D02*
X51455Y-39775D01*
X51455Y-39775D02*
X51512Y-39725D01*
X51512Y-39725D02*
X51512Y-39575D01*
X51512Y-39575D02*
X51455Y-39525D01*
X51455Y-39525D02*
X51174Y-39525D01*
X51174Y-39525D02*
X51118Y-39575D01*
X44058Y-38925D02*
X44058Y-38575D01*
X44058Y-38575D02*
X44114Y-38525D01*
X44114Y-38525D02*
X44395Y-38525D01*
X44395Y-38525D02*
X44452Y-38575D01*
X44452Y-38575D02*
X44452Y-38925D01*
X44452Y-38925D02*
X44395Y-38975D01*
X44395Y-38975D02*
X44114Y-38975D01*
X44114Y-38975D02*
X44058Y-38925D01*
X44339Y-38775D02*
X44452Y-38975D01*
X44618Y-38525D02*
X45012Y-38525D01*
X45012Y-38525D02*
X45012Y-38575D01*
X45012Y-38575D02*
X44787Y-38725D01*
X44787Y-38725D02*
X44955Y-38725D01*
X44955Y-38725D02*
X45012Y-38775D01*
X45012Y-38775D02*
X45012Y-38925D01*
X45012Y-38925D02*
X44955Y-38975D01*
X44955Y-38975D02*
X44674Y-38975D01*
X44674Y-38975D02*
X44618Y-38925D01*
X57558Y-41425D02*
X57558Y-41075D01*
X57558Y-41075D02*
X57614Y-41025D01*
X57614Y-41025D02*
X57895Y-41025D01*
X57895Y-41025D02*
X57952Y-41075D01*
X57952Y-41075D02*
X57952Y-41425D01*
X57952Y-41425D02*
X57895Y-41475D01*
X57895Y-41475D02*
X57614Y-41475D01*
X57614Y-41475D02*
X57558Y-41425D01*
X57839Y-41275D02*
X57952Y-41475D01*
X58230Y-41475D02*
X58455Y-41475D01*
X58343Y-41475D02*
X58343Y-41025D01*
X58343Y-41075D02*
X58230Y-41175D01*
G54D35*
X61919Y-44117D02*
X61919Y-43884D01*
X61919Y-43884D02*
X61957Y-43850D01*
X61957Y-43850D02*
X62144Y-43850D01*
X62144Y-43850D02*
X62182Y-43884D01*
X62182Y-43884D02*
X62182Y-44117D01*
X62182Y-44117D02*
X62144Y-44150D01*
X62144Y-44150D02*
X61957Y-44150D01*
X61957Y-44150D02*
X61919Y-44117D01*
X62107Y-44017D02*
X62182Y-44150D01*
X62520Y-44150D02*
X62520Y-43850D01*
X62520Y-43850D02*
X62332Y-44084D01*
X62332Y-44084D02*
X62595Y-44084D01*
X47919Y-42117D02*
X47919Y-41884D01*
X47919Y-41884D02*
X47957Y-41850D01*
X47957Y-41850D02*
X48144Y-41850D01*
X48144Y-41850D02*
X48182Y-41884D01*
X48182Y-41884D02*
X48182Y-42117D01*
X48182Y-42117D02*
X48144Y-42150D01*
X48144Y-42150D02*
X47957Y-42150D01*
X47957Y-42150D02*
X47919Y-42117D01*
X48107Y-42017D02*
X48182Y-42150D01*
X48595Y-41884D02*
X48557Y-41850D01*
X48557Y-41850D02*
X48370Y-41850D01*
X48370Y-41850D02*
X48332Y-41884D01*
X48332Y-41884D02*
X48332Y-42117D01*
X48332Y-42117D02*
X48370Y-42150D01*
X48370Y-42150D02*
X48557Y-42150D01*
X48557Y-42150D02*
X48595Y-42117D01*
X48595Y-42117D02*
X48595Y-42017D01*
X48595Y-42017D02*
X48557Y-41984D01*
X48557Y-41984D02*
X48370Y-41984D01*
X48370Y-41984D02*
X48332Y-42017D01*
X54919Y-43117D02*
X54919Y-42884D01*
X54919Y-42884D02*
X54957Y-42850D01*
X54957Y-42850D02*
X55144Y-42850D01*
X55144Y-42850D02*
X55182Y-42884D01*
X55182Y-42884D02*
X55182Y-43117D01*
X55182Y-43117D02*
X55144Y-43150D01*
X55144Y-43150D02*
X54957Y-43150D01*
X54957Y-43150D02*
X54919Y-43117D01*
X55107Y-43017D02*
X55182Y-43150D01*
X55332Y-43084D02*
X55332Y-43117D01*
X55332Y-43117D02*
X55370Y-43150D01*
X55370Y-43150D02*
X55557Y-43150D01*
X55557Y-43150D02*
X55595Y-43117D01*
X55595Y-43117D02*
X55595Y-43017D01*
X55595Y-43017D02*
X55520Y-42950D01*
X55520Y-42950D02*
X55332Y-42950D01*
X55332Y-42950D02*
X55332Y-42850D01*
X55332Y-42850D02*
X55595Y-42850D01*
G54D39*
X48981Y-40776D02*
X49025Y-40826D01*
X49025Y-40826D02*
X49025Y-41076D01*
X49025Y-41076D02*
X48981Y-41126D01*
X48981Y-41126D02*
X48670Y-41126D01*
X48670Y-41126D02*
X48625Y-41076D01*
X48625Y-41076D02*
X48625Y-40826D01*
X48625Y-40826D02*
X48670Y-40776D01*
X48625Y-40647D02*
X48625Y-40297D01*
X48625Y-40297D02*
X48670Y-40297D01*
X48670Y-40297D02*
X48803Y-40497D01*
X48803Y-40497D02*
X48803Y-40347D01*
X48803Y-40347D02*
X48848Y-40297D01*
X48848Y-40297D02*
X48981Y-40297D01*
X48981Y-40297D02*
X49025Y-40347D01*
X49025Y-40347D02*
X49025Y-40597D01*
X49025Y-40597D02*
X48981Y-40647D01*
X55981Y-41776D02*
X56025Y-41826D01*
X56025Y-41826D02*
X56025Y-42076D01*
X56025Y-42076D02*
X55981Y-42126D01*
X55981Y-42126D02*
X55670Y-42126D01*
X55670Y-42126D02*
X55625Y-42076D01*
X55625Y-42076D02*
X55625Y-41826D01*
X55625Y-41826D02*
X55670Y-41776D01*
X56025Y-41297D02*
X56025Y-41647D01*
X56025Y-41647D02*
X55892Y-41647D01*
X55892Y-41647D02*
X55848Y-41597D01*
X55848Y-41597D02*
X55848Y-41347D01*
X55848Y-41347D02*
X55803Y-41297D01*
X55803Y-41297D02*
X55670Y-41297D01*
X55670Y-41297D02*
X55625Y-41347D01*
X55625Y-41347D02*
X55625Y-41597D01*
X55625Y-41597D02*
X55670Y-41647D01*
X62981Y-42776D02*
X63025Y-42826D01*
X63025Y-42826D02*
X63025Y-43076D01*
X63025Y-43076D02*
X62981Y-43126D01*
X62981Y-43126D02*
X62670Y-43126D01*
X62670Y-43126D02*
X62625Y-43076D01*
X62625Y-43076D02*
X62625Y-42826D01*
X62625Y-42826D02*
X62670Y-42776D01*
X63025Y-42547D02*
X63025Y-42347D01*
X63025Y-42447D02*
X62625Y-42447D01*
X62670Y-42447D02*
X62759Y-42547D01*
G54D35*
X41584Y-34750D02*
X41584Y-35195D01*
X41584Y-35195D02*
X41634Y-35250D01*
X41634Y-35250D02*
X41884Y-35250D01*
X41884Y-35250D02*
X41934Y-35195D01*
X41934Y-35195D02*
X41934Y-34750D01*
X42458Y-35250D02*
X42108Y-35250D01*
X42108Y-35250D02*
X42108Y-35084D01*
X42108Y-35084D02*
X42158Y-35028D01*
X42158Y-35028D02*
X42408Y-35028D01*
X42408Y-35028D02*
X42458Y-34973D01*
X42458Y-34973D02*
X42458Y-34806D01*
X42458Y-34806D02*
X42408Y-34750D01*
X42408Y-34750D02*
X42158Y-34750D01*
X42158Y-34750D02*
X42108Y-34806D01*
G54D31*
X52827Y-47375D02*
X52827Y-47125D01*
X52827Y-47125D02*
X53014Y-47125D01*
X53014Y-47125D02*
X53046Y-47153D01*
X53046Y-47153D02*
X53046Y-47237D01*
X53046Y-47237D02*
X53014Y-47264D01*
X53014Y-47264D02*
X52827Y-47264D01*
X52921Y-47264D02*
X53046Y-47375D01*
X53154Y-47125D02*
X53373Y-47125D01*
X53373Y-47125D02*
X53373Y-47153D01*
X53373Y-47153D02*
X53248Y-47237D01*
X53248Y-47237D02*
X53341Y-47237D01*
X53341Y-47237D02*
X53373Y-47264D01*
X53373Y-47264D02*
X53373Y-47348D01*
X53373Y-47348D02*
X53341Y-47375D01*
X53341Y-47375D02*
X53185Y-47375D01*
X53185Y-47375D02*
X53154Y-47348D01*
X53481Y-47375D02*
X53700Y-47125D01*
X53481Y-47348D02*
X53481Y-47153D01*
X53481Y-47153D02*
X53512Y-47125D01*
X53512Y-47125D02*
X53668Y-47125D01*
X53668Y-47125D02*
X53700Y-47153D01*
X53700Y-47153D02*
X53700Y-47348D01*
X53700Y-47348D02*
X53668Y-47375D01*
X53668Y-47375D02*
X53512Y-47375D01*
X53512Y-47375D02*
X53481Y-47348D01*
X47577Y-47125D02*
X47577Y-46875D01*
X47577Y-46875D02*
X47764Y-46875D01*
X47764Y-46875D02*
X47796Y-46903D01*
X47796Y-46903D02*
X47796Y-46987D01*
X47796Y-46987D02*
X47764Y-47014D01*
X47764Y-47014D02*
X47577Y-47014D01*
X47671Y-47014D02*
X47796Y-47125D01*
X48123Y-47125D02*
X47904Y-47125D01*
X47904Y-47125D02*
X47904Y-47042D01*
X47904Y-47042D02*
X47935Y-47014D01*
X47935Y-47014D02*
X48091Y-47014D01*
X48091Y-47014D02*
X48123Y-46987D01*
X48123Y-46987D02*
X48123Y-46903D01*
X48123Y-46903D02*
X48091Y-46875D01*
X48091Y-46875D02*
X47935Y-46875D01*
X47935Y-46875D02*
X47904Y-46903D01*
X48262Y-47125D02*
X48418Y-47125D01*
X48418Y-47125D02*
X48450Y-47098D01*
X48450Y-47098D02*
X48450Y-46903D01*
X48450Y-46903D02*
X48418Y-46875D01*
X48418Y-46875D02*
X48262Y-46875D01*
X48262Y-46875D02*
X48231Y-46903D01*
X48231Y-46903D02*
X48231Y-46987D01*
X48231Y-46987D02*
X48262Y-47014D01*
X48262Y-47014D02*
X48418Y-47014D01*
X48418Y-47014D02*
X48450Y-46987D01*
X47577Y-48125D02*
X47577Y-47875D01*
X47577Y-47875D02*
X47764Y-47875D01*
X47764Y-47875D02*
X47796Y-47903D01*
X47796Y-47903D02*
X47796Y-47987D01*
X47796Y-47987D02*
X47764Y-48014D01*
X47764Y-48014D02*
X47577Y-48014D01*
X47671Y-48014D02*
X47796Y-48125D01*
X48123Y-48125D02*
X47904Y-48125D01*
X47904Y-48125D02*
X47904Y-48042D01*
X47904Y-48042D02*
X47935Y-48014D01*
X47935Y-48014D02*
X48091Y-48014D01*
X48091Y-48014D02*
X48123Y-47987D01*
X48123Y-47987D02*
X48123Y-47903D01*
X48123Y-47903D02*
X48091Y-47875D01*
X48091Y-47875D02*
X47935Y-47875D01*
X47935Y-47875D02*
X47904Y-47903D01*
X48262Y-48125D02*
X48231Y-48098D01*
X48231Y-48098D02*
X48231Y-48014D01*
X48231Y-48014D02*
X48262Y-47987D01*
X48262Y-47987D02*
X48418Y-47987D01*
X48418Y-47987D02*
X48450Y-47959D01*
X48450Y-47959D02*
X48450Y-47903D01*
X48450Y-47903D02*
X48418Y-47875D01*
X48418Y-47875D02*
X48262Y-47875D01*
X48262Y-47875D02*
X48231Y-47903D01*
X48231Y-47903D02*
X48231Y-47959D01*
X48231Y-47959D02*
X48262Y-47987D01*
X48418Y-47987D02*
X48450Y-48014D01*
X48450Y-48014D02*
X48450Y-48098D01*
X48450Y-48098D02*
X48418Y-48125D01*
X48418Y-48125D02*
X48262Y-48125D01*
X54125Y-49673D02*
X53875Y-49673D01*
X53875Y-49673D02*
X53875Y-49486D01*
X53875Y-49486D02*
X53903Y-49454D01*
X53903Y-49454D02*
X53987Y-49454D01*
X53987Y-49454D02*
X54014Y-49486D01*
X54014Y-49486D02*
X54014Y-49673D01*
X54014Y-49579D02*
X54125Y-49454D01*
X54125Y-49127D02*
X54125Y-49346D01*
X54125Y-49346D02*
X54042Y-49346D01*
X54042Y-49346D02*
X54014Y-49315D01*
X54014Y-49315D02*
X54014Y-49159D01*
X54014Y-49159D02*
X53987Y-49127D01*
X53987Y-49127D02*
X53903Y-49127D01*
X53903Y-49127D02*
X53875Y-49159D01*
X53875Y-49159D02*
X53875Y-49315D01*
X53875Y-49315D02*
X53903Y-49346D01*
X53875Y-49019D02*
X53875Y-48800D01*
X53875Y-48800D02*
X54125Y-49019D01*
X45827Y-40625D02*
X45827Y-40375D01*
X45827Y-40375D02*
X46014Y-40375D01*
X46014Y-40375D02*
X46046Y-40403D01*
X46046Y-40403D02*
X46046Y-40487D01*
X46046Y-40487D02*
X46014Y-40514D01*
X46014Y-40514D02*
X45827Y-40514D01*
X45921Y-40514D02*
X46046Y-40625D01*
X46373Y-40625D02*
X46154Y-40625D01*
X46154Y-40625D02*
X46154Y-40542D01*
X46154Y-40542D02*
X46185Y-40514D01*
X46185Y-40514D02*
X46341Y-40514D01*
X46341Y-40514D02*
X46373Y-40487D01*
X46373Y-40487D02*
X46373Y-40403D01*
X46373Y-40403D02*
X46341Y-40375D01*
X46341Y-40375D02*
X46185Y-40375D01*
X46185Y-40375D02*
X46154Y-40403D01*
X46700Y-40403D02*
X46668Y-40375D01*
X46668Y-40375D02*
X46512Y-40375D01*
X46512Y-40375D02*
X46481Y-40403D01*
X46481Y-40403D02*
X46481Y-40598D01*
X46481Y-40598D02*
X46512Y-40625D01*
X46512Y-40625D02*
X46668Y-40625D01*
X46668Y-40625D02*
X46700Y-40598D01*
X46700Y-40598D02*
X46700Y-40514D01*
X46700Y-40514D02*
X46668Y-40487D01*
X46668Y-40487D02*
X46512Y-40487D01*
X46512Y-40487D02*
X46481Y-40514D01*
X50577Y-42125D02*
X50577Y-41875D01*
X50577Y-41875D02*
X50764Y-41875D01*
X50764Y-41875D02*
X50796Y-41903D01*
X50796Y-41903D02*
X50796Y-41987D01*
X50796Y-41987D02*
X50764Y-42014D01*
X50764Y-42014D02*
X50577Y-42014D01*
X50671Y-42014D02*
X50796Y-42125D01*
X51123Y-42125D02*
X50904Y-42125D01*
X50904Y-42125D02*
X50904Y-42042D01*
X50904Y-42042D02*
X50935Y-42014D01*
X50935Y-42014D02*
X51091Y-42014D01*
X51091Y-42014D02*
X51123Y-41987D01*
X51123Y-41987D02*
X51123Y-41903D01*
X51123Y-41903D02*
X51091Y-41875D01*
X51091Y-41875D02*
X50935Y-41875D01*
X50935Y-41875D02*
X50904Y-41903D01*
X51231Y-42070D02*
X51231Y-42098D01*
X51231Y-42098D02*
X51262Y-42125D01*
X51262Y-42125D02*
X51418Y-42125D01*
X51418Y-42125D02*
X51450Y-42098D01*
X51450Y-42098D02*
X51450Y-42014D01*
X51450Y-42014D02*
X51387Y-41959D01*
X51387Y-41959D02*
X51231Y-41959D01*
X51231Y-41959D02*
X51231Y-41875D01*
X51231Y-41875D02*
X51450Y-41875D01*
X57577Y-43125D02*
X57577Y-42875D01*
X57577Y-42875D02*
X57764Y-42875D01*
X57764Y-42875D02*
X57796Y-42903D01*
X57796Y-42903D02*
X57796Y-42987D01*
X57796Y-42987D02*
X57764Y-43014D01*
X57764Y-43014D02*
X57577Y-43014D01*
X57671Y-43014D02*
X57796Y-43125D01*
X58123Y-43125D02*
X57904Y-43125D01*
X57904Y-43125D02*
X57904Y-43042D01*
X57904Y-43042D02*
X57935Y-43014D01*
X57935Y-43014D02*
X58091Y-43014D01*
X58091Y-43014D02*
X58123Y-42987D01*
X58123Y-42987D02*
X58123Y-42903D01*
X58123Y-42903D02*
X58091Y-42875D01*
X58091Y-42875D02*
X57935Y-42875D01*
X57935Y-42875D02*
X57904Y-42903D01*
X58387Y-43125D02*
X58387Y-42875D01*
X58387Y-42875D02*
X58231Y-43070D01*
X58231Y-43070D02*
X58450Y-43070D01*
X43209Y-41098D02*
X43177Y-41125D01*
X43177Y-41125D02*
X43021Y-41125D01*
X43021Y-41125D02*
X42990Y-41098D01*
X42990Y-41098D02*
X42990Y-40903D01*
X42990Y-40903D02*
X43021Y-40875D01*
X43021Y-40875D02*
X43177Y-40875D01*
X43177Y-40875D02*
X43209Y-40903D01*
X43348Y-41125D02*
X43504Y-41125D01*
X43504Y-41125D02*
X43536Y-41098D01*
X43536Y-41098D02*
X43536Y-40903D01*
X43536Y-40903D02*
X43504Y-40875D01*
X43504Y-40875D02*
X43348Y-40875D01*
X43348Y-40875D02*
X43317Y-40903D01*
X43317Y-40903D02*
X43317Y-40987D01*
X43317Y-40987D02*
X43348Y-41014D01*
X43348Y-41014D02*
X43504Y-41014D01*
X43504Y-41014D02*
X43536Y-40987D01*
X40709Y-41598D02*
X40677Y-41625D01*
X40677Y-41625D02*
X40521Y-41625D01*
X40521Y-41625D02*
X40490Y-41598D01*
X40490Y-41598D02*
X40490Y-41403D01*
X40490Y-41403D02*
X40521Y-41375D01*
X40521Y-41375D02*
X40677Y-41375D01*
X40677Y-41375D02*
X40709Y-41403D01*
X40848Y-41625D02*
X40817Y-41598D01*
X40817Y-41598D02*
X40817Y-41514D01*
X40817Y-41514D02*
X40848Y-41487D01*
X40848Y-41487D02*
X41004Y-41487D01*
X41004Y-41487D02*
X41036Y-41459D01*
X41036Y-41459D02*
X41036Y-41403D01*
X41036Y-41403D02*
X41004Y-41375D01*
X41004Y-41375D02*
X40848Y-41375D01*
X40848Y-41375D02*
X40817Y-41403D01*
X40817Y-41403D02*
X40817Y-41459D01*
X40817Y-41459D02*
X40848Y-41487D01*
X41004Y-41487D02*
X41036Y-41514D01*
X41036Y-41514D02*
X41036Y-41598D01*
X41036Y-41598D02*
X41004Y-41625D01*
X41004Y-41625D02*
X40848Y-41625D01*
G54D35*
X64262Y-45566D02*
X64350Y-45516D01*
X64350Y-45516D02*
X64350Y-45416D01*
X64350Y-45416D02*
X64306Y-45366D01*
X64306Y-45366D02*
X63950Y-45366D01*
X63950Y-45466D02*
X63950Y-45266D01*
X63950Y-45042D02*
X63950Y-44692D01*
X63950Y-44692D02*
X64350Y-45042D01*
G54D31*
X52577Y-45625D02*
X52577Y-45375D01*
X52577Y-45375D02*
X52764Y-45375D01*
X52764Y-45375D02*
X52796Y-45403D01*
X52796Y-45403D02*
X52796Y-45487D01*
X52796Y-45487D02*
X52764Y-45514D01*
X52764Y-45514D02*
X52577Y-45514D01*
X52671Y-45514D02*
X52796Y-45625D01*
X52904Y-45375D02*
X53123Y-45375D01*
X53123Y-45375D02*
X53123Y-45403D01*
X53123Y-45403D02*
X52998Y-45487D01*
X52998Y-45487D02*
X53091Y-45487D01*
X53091Y-45487D02*
X53123Y-45514D01*
X53123Y-45514D02*
X53123Y-45598D01*
X53123Y-45598D02*
X53091Y-45625D01*
X53091Y-45625D02*
X52935Y-45625D01*
X52935Y-45625D02*
X52904Y-45598D01*
X53231Y-45375D02*
X53450Y-45375D01*
X53450Y-45375D02*
X53450Y-45403D01*
X53450Y-45403D02*
X53325Y-45487D01*
X53325Y-45487D02*
X53418Y-45487D01*
X53418Y-45487D02*
X53450Y-45514D01*
X53450Y-45514D02*
X53450Y-45598D01*
X53450Y-45598D02*
X53418Y-45625D01*
X53418Y-45625D02*
X53262Y-45625D01*
X53262Y-45625D02*
X53231Y-45598D01*
X61827Y-46625D02*
X61827Y-46375D01*
X61827Y-46375D02*
X62014Y-46375D01*
X62014Y-46375D02*
X62046Y-46403D01*
X62046Y-46403D02*
X62046Y-46487D01*
X62046Y-46487D02*
X62014Y-46514D01*
X62014Y-46514D02*
X61827Y-46514D01*
X61921Y-46514D02*
X62046Y-46625D01*
X62154Y-46375D02*
X62373Y-46375D01*
X62373Y-46375D02*
X62373Y-46403D01*
X62373Y-46403D02*
X62248Y-46487D01*
X62248Y-46487D02*
X62341Y-46487D01*
X62341Y-46487D02*
X62373Y-46514D01*
X62373Y-46514D02*
X62373Y-46598D01*
X62373Y-46598D02*
X62341Y-46625D01*
X62341Y-46625D02*
X62185Y-46625D01*
X62185Y-46625D02*
X62154Y-46598D01*
X62700Y-46625D02*
X62481Y-46625D01*
X62481Y-46625D02*
X62481Y-46542D01*
X62481Y-46542D02*
X62512Y-46514D01*
X62512Y-46514D02*
X62668Y-46514D01*
X62668Y-46514D02*
X62700Y-46487D01*
X62700Y-46487D02*
X62700Y-46403D01*
X62700Y-46403D02*
X62668Y-46375D01*
X62668Y-46375D02*
X62512Y-46375D01*
X62512Y-46375D02*
X62481Y-46403D01*
X65375Y-48423D02*
X65125Y-48423D01*
X65125Y-48423D02*
X65125Y-48236D01*
X65125Y-48236D02*
X65153Y-48204D01*
X65153Y-48204D02*
X65237Y-48204D01*
X65237Y-48204D02*
X65264Y-48236D01*
X65264Y-48236D02*
X65264Y-48423D01*
X65264Y-48329D02*
X65375Y-48204D01*
X65125Y-48096D02*
X65125Y-47877D01*
X65125Y-47877D02*
X65153Y-47877D01*
X65153Y-47877D02*
X65237Y-48002D01*
X65237Y-48002D02*
X65237Y-47909D01*
X65237Y-47909D02*
X65264Y-47877D01*
X65264Y-47877D02*
X65348Y-47877D01*
X65348Y-47877D02*
X65375Y-47909D01*
X65375Y-47909D02*
X65375Y-48065D01*
X65375Y-48065D02*
X65348Y-48096D01*
X65375Y-47707D02*
X65375Y-47582D01*
X65375Y-47644D02*
X65125Y-47644D01*
X65153Y-47644D02*
X65209Y-47707D01*
X47827Y-44625D02*
X47827Y-44375D01*
X47827Y-44375D02*
X48014Y-44375D01*
X48014Y-44375D02*
X48046Y-44403D01*
X48046Y-44403D02*
X48046Y-44487D01*
X48046Y-44487D02*
X48014Y-44514D01*
X48014Y-44514D02*
X47827Y-44514D01*
X47921Y-44514D02*
X48046Y-44625D01*
X48154Y-44375D02*
X48373Y-44375D01*
X48373Y-44375D02*
X48373Y-44403D01*
X48373Y-44403D02*
X48248Y-44487D01*
X48248Y-44487D02*
X48341Y-44487D01*
X48341Y-44487D02*
X48373Y-44514D01*
X48373Y-44514D02*
X48373Y-44598D01*
X48373Y-44598D02*
X48341Y-44625D01*
X48341Y-44625D02*
X48185Y-44625D01*
X48185Y-44625D02*
X48154Y-44598D01*
X48637Y-44625D02*
X48637Y-44375D01*
X48637Y-44375D02*
X48481Y-44570D01*
X48481Y-44570D02*
X48700Y-44570D01*
X62848Y-48204D02*
X62875Y-48236D01*
X62875Y-48236D02*
X62875Y-48392D01*
X62875Y-48392D02*
X62848Y-48423D01*
X62848Y-48423D02*
X62653Y-48423D01*
X62653Y-48423D02*
X62625Y-48392D01*
X62625Y-48392D02*
X62625Y-48236D01*
X62625Y-48236D02*
X62653Y-48204D01*
X62875Y-48034D02*
X62875Y-47909D01*
X62875Y-47971D02*
X62625Y-47971D01*
X62653Y-47971D02*
X62709Y-48034D01*
X62875Y-47769D02*
X62625Y-47550D01*
X62848Y-47769D02*
X62653Y-47769D01*
X62653Y-47769D02*
X62625Y-47738D01*
X62625Y-47738D02*
X62625Y-47582D01*
X62625Y-47582D02*
X62653Y-47550D01*
X62653Y-47550D02*
X62848Y-47550D01*
X62848Y-47550D02*
X62875Y-47582D01*
X62875Y-47582D02*
X62875Y-47738D01*
X62875Y-47738D02*
X62848Y-47769D01*
G54D35*
X61919Y-45367D02*
X61919Y-45134D01*
X61919Y-45134D02*
X61957Y-45100D01*
X61957Y-45100D02*
X62144Y-45100D01*
X62144Y-45100D02*
X62182Y-45134D01*
X62182Y-45134D02*
X62182Y-45367D01*
X62182Y-45367D02*
X62144Y-45400D01*
X62144Y-45400D02*
X61957Y-45400D01*
X61957Y-45400D02*
X61919Y-45367D01*
X62107Y-45267D02*
X62182Y-45400D01*
X62332Y-45100D02*
X62595Y-45100D01*
X62595Y-45100D02*
X62332Y-45400D01*
X47919Y-43617D02*
X47919Y-43384D01*
X47919Y-43384D02*
X47957Y-43350D01*
X47957Y-43350D02*
X48144Y-43350D01*
X48144Y-43350D02*
X48182Y-43384D01*
X48182Y-43384D02*
X48182Y-43617D01*
X48182Y-43617D02*
X48144Y-43650D01*
X48144Y-43650D02*
X47957Y-43650D01*
X47957Y-43650D02*
X47919Y-43617D01*
X48107Y-43517D02*
X48182Y-43650D01*
X48370Y-43650D02*
X48557Y-43650D01*
X48557Y-43650D02*
X48595Y-43617D01*
X48595Y-43617D02*
X48595Y-43384D01*
X48595Y-43384D02*
X48557Y-43350D01*
X48557Y-43350D02*
X48370Y-43350D01*
X48370Y-43350D02*
X48332Y-43384D01*
X48332Y-43384D02*
X48332Y-43484D01*
X48332Y-43484D02*
X48370Y-43517D01*
X48370Y-43517D02*
X48557Y-43517D01*
X48557Y-43517D02*
X48595Y-43484D01*
X54919Y-44367D02*
X54919Y-44134D01*
X54919Y-44134D02*
X54957Y-44100D01*
X54957Y-44100D02*
X55144Y-44100D01*
X55144Y-44100D02*
X55182Y-44134D01*
X55182Y-44134D02*
X55182Y-44367D01*
X55182Y-44367D02*
X55144Y-44400D01*
X55144Y-44400D02*
X54957Y-44400D01*
X54957Y-44400D02*
X54919Y-44367D01*
X55107Y-44267D02*
X55182Y-44400D01*
X55370Y-44400D02*
X55332Y-44367D01*
X55332Y-44367D02*
X55332Y-44267D01*
X55332Y-44267D02*
X55370Y-44234D01*
X55370Y-44234D02*
X55557Y-44234D01*
X55557Y-44234D02*
X55595Y-44200D01*
X55595Y-44200D02*
X55595Y-44134D01*
X55595Y-44134D02*
X55557Y-44100D01*
X55557Y-44100D02*
X55370Y-44100D01*
X55370Y-44100D02*
X55332Y-44134D01*
X55332Y-44134D02*
X55332Y-44200D01*
X55332Y-44200D02*
X55370Y-44234D01*
X55557Y-44234D02*
X55595Y-44267D01*
X55595Y-44267D02*
X55595Y-44367D01*
X55595Y-44367D02*
X55557Y-44400D01*
X55557Y-44400D02*
X55370Y-44400D01*
G54D31*
X65827Y-50125D02*
X65827Y-49875D01*
X65827Y-49875D02*
X66014Y-49875D01*
X66014Y-49875D02*
X66046Y-49903D01*
X66046Y-49903D02*
X66046Y-49987D01*
X66046Y-49987D02*
X66014Y-50014D01*
X66014Y-50014D02*
X65827Y-50014D01*
X65921Y-50014D02*
X66046Y-50125D01*
X66154Y-49875D02*
X66373Y-49875D01*
X66373Y-49875D02*
X66373Y-49903D01*
X66373Y-49903D02*
X66248Y-49987D01*
X66248Y-49987D02*
X66341Y-49987D01*
X66341Y-49987D02*
X66373Y-50014D01*
X66373Y-50014D02*
X66373Y-50098D01*
X66373Y-50098D02*
X66341Y-50125D01*
X66341Y-50125D02*
X66185Y-50125D01*
X66185Y-50125D02*
X66154Y-50098D01*
X66700Y-49903D02*
X66668Y-49875D01*
X66668Y-49875D02*
X66512Y-49875D01*
X66512Y-49875D02*
X66481Y-49903D01*
X66481Y-49903D02*
X66481Y-50098D01*
X66481Y-50098D02*
X66512Y-50125D01*
X66512Y-50125D02*
X66668Y-50125D01*
X66668Y-50125D02*
X66700Y-50098D01*
X66700Y-50098D02*
X66700Y-50014D01*
X66700Y-50014D02*
X66668Y-49987D01*
X66668Y-49987D02*
X66512Y-49987D01*
X66512Y-49987D02*
X66481Y-50014D01*
X64327Y-50125D02*
X64327Y-49875D01*
X64327Y-49875D02*
X64514Y-49875D01*
X64514Y-49875D02*
X64546Y-49903D01*
X64546Y-49903D02*
X64546Y-49987D01*
X64546Y-49987D02*
X64514Y-50014D01*
X64514Y-50014D02*
X64327Y-50014D01*
X64421Y-50014D02*
X64546Y-50125D01*
X64654Y-49875D02*
X64873Y-49875D01*
X64873Y-49875D02*
X64873Y-49903D01*
X64873Y-49903D02*
X64748Y-49987D01*
X64748Y-49987D02*
X64841Y-49987D01*
X64841Y-49987D02*
X64873Y-50014D01*
X64873Y-50014D02*
X64873Y-50098D01*
X64873Y-50098D02*
X64841Y-50125D01*
X64841Y-50125D02*
X64685Y-50125D01*
X64685Y-50125D02*
X64654Y-50098D01*
X64981Y-50070D02*
X64981Y-50098D01*
X64981Y-50098D02*
X65012Y-50125D01*
X65012Y-50125D02*
X65168Y-50125D01*
X65168Y-50125D02*
X65200Y-50098D01*
X65200Y-50098D02*
X65200Y-50014D01*
X65200Y-50014D02*
X65137Y-49959D01*
X65137Y-49959D02*
X64981Y-49959D01*
X64981Y-49959D02*
X64981Y-49875D01*
X64981Y-49875D02*
X65200Y-49875D01*
G54D35*
X65713Y-49067D02*
X65713Y-48834D01*
X65713Y-48834D02*
X65751Y-48800D01*
X65751Y-48800D02*
X65938Y-48800D01*
X65938Y-48800D02*
X65976Y-48834D01*
X65976Y-48834D02*
X65976Y-49067D01*
X65976Y-49067D02*
X65938Y-49100D01*
X65938Y-49100D02*
X65751Y-49100D01*
X65751Y-49100D02*
X65713Y-49067D01*
X65901Y-48967D02*
X65976Y-49100D01*
X66201Y-49100D02*
X66351Y-49100D01*
X66276Y-49100D02*
X66276Y-48800D01*
X66276Y-48834D02*
X66201Y-48900D01*
X66539Y-49100D02*
X66802Y-48800D01*
X66539Y-49067D02*
X66539Y-48834D01*
X66539Y-48834D02*
X66577Y-48800D01*
X66577Y-48800D02*
X66764Y-48800D01*
X66764Y-48800D02*
X66802Y-48834D01*
X66802Y-48834D02*
X66802Y-49067D01*
X66802Y-49067D02*
X66764Y-49100D01*
X66764Y-49100D02*
X66577Y-49100D01*
X66577Y-49100D02*
X66539Y-49067D01*
M02*
